<svg width="374" height="93" viewBox="0 0 374 93" fill="none" xmlns="http://www.w3.org/2000/svg">
<rect width="374" height="92" rx="6" fill="white"/>
<path d="M180.511 23.4545H182.528L186.562 30.2443H186.733L190.767 23.4545H192.784L187.528 32.0057V38H185.767V32.0057L180.511 23.4545ZM197.866 38.2273C196.815 38.2273 195.908 37.9953 195.146 37.5312C194.388 37.0625 193.803 36.4091 193.391 35.571C192.984 34.7282 192.781 33.7481 192.781 32.6307C192.781 31.5133 192.984 30.5284 193.391 29.6761C193.803 28.8191 194.376 28.1515 195.11 27.6733C195.849 27.1903 196.71 26.9489 197.695 26.9489C198.263 26.9489 198.825 27.0436 199.379 27.233C199.933 27.4223 200.437 27.7301 200.891 28.1562C201.346 28.5777 201.708 29.1364 201.978 29.8324C202.248 30.5284 202.383 31.3854 202.383 32.4034V33.1136H193.974V31.6648H200.678C200.678 31.0492 200.555 30.5 200.309 30.017C200.067 29.5341 199.722 29.1529 199.272 28.8736C198.827 28.5942 198.301 28.4545 197.695 28.4545C197.028 28.4545 196.45 28.6203 195.962 28.9517C195.479 29.2784 195.108 29.7045 194.847 30.2301C194.587 30.7557 194.457 31.3191 194.457 31.9205V32.8864C194.457 33.7102 194.599 34.4086 194.883 34.9815C195.172 35.5497 195.572 35.983 196.083 36.2812C196.594 36.5748 197.189 36.7216 197.866 36.7216C198.306 36.7216 198.704 36.66 199.059 36.5369C199.419 36.4091 199.729 36.2197 199.989 35.9688C200.25 35.7131 200.451 35.3958 200.593 35.017L202.212 35.4716C202.042 36.0208 201.755 36.5038 201.353 36.9205C200.951 37.3324 200.453 37.6544 199.862 37.8864C199.27 38.1136 198.604 38.2273 197.866 38.2273ZM208.143 38.2557C207.451 38.2557 206.824 38.1255 206.261 37.8651C205.697 37.5999 205.25 37.2188 204.918 36.7216C204.587 36.2197 204.421 35.6136 204.421 34.9034C204.421 34.2784 204.544 33.7718 204.79 33.3835C205.037 32.9905 205.366 32.6828 205.778 32.4602C206.19 32.2377 206.644 32.072 207.141 31.9631C207.643 31.8494 208.147 31.7595 208.654 31.6932C209.317 31.608 209.854 31.544 210.266 31.5014C210.683 31.4541 210.986 31.3759 211.175 31.267C211.37 31.1581 211.467 30.9687 211.467 30.6989V30.642C211.467 29.9413 211.275 29.3968 210.891 29.0085C210.513 28.6203 209.937 28.4261 209.165 28.4261C208.365 28.4261 207.738 28.6013 207.283 28.9517C206.829 29.3021 206.509 29.6761 206.325 30.0739L204.734 29.5057C205.018 28.8428 205.397 28.3267 205.87 27.9574C206.348 27.5833 206.869 27.3229 207.433 27.1761C208.001 27.0246 208.559 26.9489 209.109 26.9489C209.459 26.9489 209.862 26.9915 210.316 27.0767C210.775 27.1572 211.218 27.3253 211.644 27.581C212.075 27.8366 212.433 28.2225 212.717 28.7386C213.001 29.2547 213.143 29.946 213.143 30.8125V38H211.467V36.5227H211.381C211.268 36.7595 211.078 37.0128 210.813 37.2827C210.548 37.5526 210.195 37.7822 209.755 37.9716C209.315 38.161 208.777 38.2557 208.143 38.2557ZM208.398 36.75C209.061 36.75 209.62 36.6198 210.075 36.3594C210.534 36.099 210.879 35.7628 211.112 35.3509C211.348 34.9389 211.467 34.5057 211.467 34.0511V32.517C211.396 32.6023 211.239 32.6804 210.998 32.7514C210.761 32.8177 210.487 32.8769 210.174 32.929C209.866 32.9763 209.566 33.0189 209.272 33.0568C208.983 33.09 208.749 33.1184 208.569 33.142C208.133 33.1989 207.726 33.2912 207.347 33.419C206.973 33.5421 206.67 33.7292 206.438 33.9801C206.211 34.2263 206.097 34.5625 206.097 34.9886C206.097 35.571 206.313 36.0114 206.744 36.3097C207.179 36.6032 207.731 36.75 208.398 36.75ZM216.202 38V27.0909H217.821V28.7386H217.935C218.134 28.1989 218.494 27.7609 219.015 27.4247C219.535 27.0885 220.123 26.9205 220.776 26.9205C220.899 26.9205 221.053 26.9228 221.238 26.9276C221.422 26.9323 221.562 26.9394 221.657 26.9489V28.6534C221.6 28.6392 221.47 28.6179 221.266 28.5895C221.067 28.5563 220.856 28.5398 220.634 28.5398C220.104 28.5398 219.63 28.651 219.213 28.8736C218.801 29.0914 218.475 29.3944 218.233 29.7827C217.997 30.1662 217.878 30.6042 217.878 31.0966V38H216.202ZM231.371 29.5341L229.865 29.9602C229.77 29.7093 229.631 29.4654 229.446 29.2287C229.266 28.9872 229.02 28.7884 228.707 28.6321C228.395 28.4759 227.995 28.3977 227.507 28.3977C226.839 28.3977 226.283 28.5516 225.838 28.8594C225.398 29.1624 225.178 29.5483 225.178 30.017C225.178 30.4337 225.329 30.7628 225.632 31.0043C225.935 31.2457 226.409 31.447 227.053 31.608L228.672 32.0057C229.647 32.2424 230.374 32.6046 230.852 33.0923C231.33 33.5753 231.57 34.1979 231.57 34.9602C231.57 35.5852 231.39 36.1439 231.03 36.6364C230.675 37.1288 230.178 37.517 229.538 37.8011C228.899 38.0852 228.156 38.2273 227.308 38.2273C226.196 38.2273 225.275 37.9858 224.545 37.5028C223.816 37.0199 223.355 36.3144 223.161 35.3864L224.751 34.9886C224.903 35.5758 225.189 36.0161 225.611 36.3097C226.037 36.6032 226.593 36.75 227.28 36.75C228.061 36.75 228.681 36.5843 229.141 36.2528C229.605 35.9167 229.837 35.5142 229.837 35.0455C229.837 34.6667 229.704 34.3494 229.439 34.0938C229.174 33.8333 228.767 33.6392 228.217 33.5114L226.399 33.0852C225.4 32.8485 224.666 32.4815 224.197 31.9844C223.733 31.4825 223.501 30.8551 223.501 30.1023C223.501 29.4867 223.674 28.9422 224.02 28.4688C224.37 27.9953 224.846 27.6236 225.447 27.3537C226.054 27.0838 226.74 26.9489 227.507 26.9489C228.587 26.9489 229.434 27.1856 230.05 27.6591C230.67 28.1326 231.11 28.7576 231.371 29.5341ZM244.15 38.2273C243.165 38.2273 242.301 37.9929 241.557 37.5241C240.819 37.0554 240.241 36.3996 239.824 35.5568C239.412 34.714 239.206 33.7292 239.206 32.6023C239.206 31.4659 239.412 30.474 239.824 29.6264C240.241 28.7789 240.819 28.1207 241.557 27.652C242.301 27.1832 243.165 26.9489 244.15 26.9489C245.134 26.9489 245.996 27.1832 246.735 27.652C247.478 28.1207 248.056 28.7789 248.468 29.6264C248.884 30.474 249.093 31.4659 249.093 32.6023C249.093 33.7292 248.884 34.714 248.468 35.5568C248.056 36.3996 247.478 37.0554 246.735 37.5241C245.996 37.9929 245.134 38.2273 244.15 38.2273ZM244.15 36.7216C244.898 36.7216 245.513 36.5298 245.996 36.1463C246.479 35.7628 246.837 35.2585 247.069 34.6335C247.301 34.0085 247.417 33.3314 247.417 32.6023C247.417 31.8731 247.301 31.1937 247.069 30.5639C246.837 29.9342 246.479 29.4252 245.996 29.0369C245.513 28.6487 244.898 28.4545 244.15 28.4545C243.401 28.4545 242.786 28.6487 242.303 29.0369C241.82 29.4252 241.462 29.9342 241.23 30.5639C240.998 31.1937 240.882 31.8731 240.882 32.6023C240.882 33.3314 240.998 34.0085 241.23 34.6335C241.462 35.2585 241.82 35.7628 242.303 36.1463C242.786 36.5298 243.401 36.7216 244.15 36.7216ZM256.509 27.0909V28.5114H250.629V27.0909H256.509ZM252.39 38V25.5852C252.39 24.9602 252.537 24.4394 252.83 24.0227C253.124 23.6061 253.505 23.2936 253.974 23.0852C254.442 22.8769 254.937 22.7727 255.458 22.7727C255.87 22.7727 256.206 22.8059 256.467 22.8722C256.727 22.9384 256.921 23 257.049 23.0568L256.566 24.5057C256.481 24.4773 256.362 24.4418 256.211 24.3991C256.064 24.3565 255.87 24.3352 255.629 24.3352C255.075 24.3352 254.674 24.4749 254.428 24.7543C254.187 25.0336 254.066 25.4432 254.066 25.983V38H252.39Z" fill="#1E1E1E"/>
<path d="M0 6C0 2.68629 2.68629 0 6 0H10V93H6C2.68629 93 0 90.3137 0 87V6Z" fill="#FF9F0D"/>
<path d="M58.8281 53.5703C58.8281 54.9297 59.0469 56.0547 59.4844 56.9453C60.2969 58.5859 61.7734 59.4062 63.9141 59.4062C65.2266 59.4062 66.3672 58.9609 67.3359 58.0703C68.3203 57.1641 68.8125 55.8672 68.8125 54.1797C68.8125 51.9453 67.9062 50.4531 66.0938 49.7031C65.0625 49.2812 63.4375 49.0703 61.2188 49.0703V44.2891C63.3906 44.2578 64.9062 44.0469 65.7656 43.6562C67.25 43 67.9922 41.6719 67.9922 39.6719C67.9922 38.375 67.6094 37.3203 66.8438 36.5078C66.0938 35.6953 65.0312 35.2891 63.6562 35.2891C62.0781 35.2891 60.9141 35.7891 60.1641 36.7891C59.4297 37.7891 59.0781 39.125 59.1094 40.7969H52.875C52.9375 39.1094 53.2266 37.5078 53.7422 35.9922C54.2891 34.6641 55.1484 33.4375 56.3203 32.3125C57.1953 31.5156 58.2344 30.9062 59.4375 30.4844C60.6406 30.0625 62.1172 29.8516 63.8672 29.8516C67.1172 29.8516 69.7344 30.6953 71.7188 32.3828C73.7188 34.0547 74.7188 36.3047 74.7188 39.1328C74.7188 41.1328 74.125 42.8203 72.9375 44.1953C72.1875 45.0547 71.4062 45.6406 70.5938 45.9531C71.2031 45.9531 72.0781 46.4766 73.2188 47.5234C74.9219 49.1016 75.7734 51.2578 75.7734 53.9922C75.7734 56.8672 74.7734 59.3984 72.7734 61.5859C70.7891 63.7578 67.8438 64.8438 63.9375 64.8438C59.125 64.8438 55.7812 63.2734 53.9062 60.1328C52.9219 58.4609 52.375 56.2734 52.2656 53.5703H58.8281ZM86.0391 47.3359C86.0391 51.2422 86.3594 54.2344 87 56.3125C87.6406 58.375 88.9531 59.4062 90.9375 59.4062C92.9219 59.4062 94.2188 58.375 94.8281 56.3125C95.4531 54.2344 95.7656 51.2422 95.7656 47.3359C95.7656 43.2422 95.4531 40.2109 94.8281 38.2422C94.2188 36.2734 92.9219 35.2891 90.9375 35.2891C88.9531 35.2891 87.6406 36.2734 87 38.2422C86.3594 40.2109 86.0391 43.2422 86.0391 47.3359ZM90.9375 29.7812C95.2656 29.7812 98.2969 31.3047 100.031 34.3516C101.781 37.3984 102.656 41.7266 102.656 47.3359C102.656 52.9453 101.781 57.2656 100.031 60.2969C98.2969 63.3281 95.2656 64.8438 90.9375 64.8438C86.6094 64.8438 83.5703 63.3281 81.8203 60.2969C80.0859 57.2656 79.2188 52.9453 79.2188 47.3359C79.2188 41.7266 80.0859 37.3984 81.8203 34.3516C83.5703 31.3047 86.6094 29.7812 90.9375 29.7812ZM106.148 54.3438V48.2266H115.758V38.6172H121.922V48.2266H131.531V54.3438H121.922V64H115.758V54.3438H106.148Z" fill="#FF9F0D"/>
<path d="M194.602 51.7852H185.461V55.4531H193.852V58.4531H185.461V62.8945H195.023V66H181.934V48.7266H194.602V51.7852ZM196.312 66L200.672 59.5312L196.5 53.25H200.59L202.723 56.9531L204.809 53.25H208.781L204.586 59.4727L208.945 66H204.785L202.582 62.168L200.367 66H196.312ZM219.727 59.6133C219.727 58.6289 219.5 57.7578 219.047 57C218.602 56.2422 217.875 55.8633 216.867 55.8633C215.656 55.8633 214.824 56.4375 214.371 57.5859C214.137 58.1953 214.02 58.9688 214.02 59.9062C214.02 61.3906 214.414 62.4336 215.203 63.0352C215.672 63.3867 216.227 63.5625 216.867 63.5625C217.797 63.5625 218.504 63.2031 218.988 62.4844C219.48 61.7656 219.727 60.8086 219.727 59.6133ZM217.828 52.9453C219.32 52.9453 220.582 53.4961 221.613 54.5977C222.652 55.6992 223.172 57.3164 223.172 59.4492C223.172 61.6992 222.664 63.4141 221.648 64.5938C220.641 65.7734 219.34 66.3633 217.746 66.3633C216.73 66.3633 215.887 66.1094 215.215 65.6016C214.848 65.3203 214.488 64.9102 214.137 64.3711V71.0273H210.832V53.2266H214.031V55.1133C214.391 54.5586 214.773 54.1211 215.18 53.8008C215.922 53.2305 216.805 52.9453 217.828 52.9453ZM230.637 55.6406C229.863 55.6406 229.262 55.8828 228.832 56.3672C228.41 56.8516 228.145 57.5078 228.035 58.3359H233.227C233.172 57.4531 232.902 56.7852 232.418 56.332C231.941 55.8711 231.348 55.6406 230.637 55.6406ZM230.637 52.8867C231.699 52.8867 232.656 53.0859 233.508 53.4844C234.359 53.8828 235.062 54.5117 235.617 55.3711C236.117 56.1289 236.441 57.0078 236.59 58.0078C236.676 58.5938 236.711 59.4375 236.695 60.5391H227.953C228 61.8203 228.402 62.7188 229.16 63.2344C229.621 63.5547 230.176 63.7148 230.824 63.7148C231.512 63.7148 232.07 63.5195 232.5 63.1289C232.734 62.918 232.941 62.625 233.121 62.25H236.531C236.445 63.0078 236.051 63.7773 235.348 64.5586C234.254 65.8008 232.723 66.4219 230.754 66.4219C229.129 66.4219 227.695 65.8984 226.453 64.8516C225.211 63.8047 224.59 62.1016 224.59 59.7422C224.59 57.5312 225.148 55.8359 226.266 54.6562C227.391 53.4766 228.848 52.8867 230.637 52.8867ZM245.895 52.9219C245.957 52.9219 246.008 52.9258 246.047 52.9336C246.094 52.9336 246.191 52.9375 246.34 52.9453V56.3672C246.129 56.3438 245.941 56.3281 245.777 56.3203C245.613 56.3125 245.48 56.3086 245.379 56.3086C244.035 56.3086 243.133 56.7461 242.672 57.6211C242.414 58.1133 242.285 58.8711 242.285 59.8945V66H238.922V53.2266H242.109V55.4531C242.625 54.6016 243.074 54.0195 243.457 53.707C244.082 53.1836 244.895 52.9219 245.895 52.9219ZM251.742 51.7031H248.355V48.6211H251.742V51.7031ZM248.355 53.2266H251.742V66H248.355V53.2266ZM260.027 55.6406C259.254 55.6406 258.652 55.8828 258.223 56.3672C257.801 56.8516 257.535 57.5078 257.426 58.3359H262.617C262.562 57.4531 262.293 56.7852 261.809 56.332C261.332 55.8711 260.738 55.6406 260.027 55.6406ZM260.027 52.8867C261.09 52.8867 262.047 53.0859 262.898 53.4844C263.75 53.8828 264.453 54.5117 265.008 55.3711C265.508 56.1289 265.832 57.0078 265.98 58.0078C266.066 58.5938 266.102 59.4375 266.086 60.5391H257.344C257.391 61.8203 257.793 62.7188 258.551 63.2344C259.012 63.5547 259.566 63.7148 260.215 63.7148C260.902 63.7148 261.461 63.5195 261.891 63.1289C262.125 62.918 262.332 62.625 262.512 62.25H265.922C265.836 63.0078 265.441 63.7773 264.738 64.5586C263.645 65.8008 262.113 66.4219 260.145 66.4219C258.52 66.4219 257.086 65.8984 255.844 64.8516C254.602 63.8047 253.98 62.1016 253.98 59.7422C253.98 57.5312 254.539 55.8359 255.656 54.6562C256.781 53.4766 258.238 52.8867 260.027 52.8867ZM275.426 52.9219C276.746 52.9219 277.824 53.2695 278.66 53.9648C279.504 54.6523 279.926 55.7969 279.926 57.3984V66H276.504V58.2305C276.504 57.5586 276.414 57.043 276.234 56.6836C275.906 56.0273 275.281 55.6992 274.359 55.6992C273.227 55.6992 272.449 56.1797 272.027 57.1406C271.809 57.6484 271.699 58.2969 271.699 59.0859V66H268.371V53.25H271.594V55.1133C272.023 54.457 272.43 53.9844 272.812 53.6953C273.5 53.1797 274.371 52.9219 275.426 52.9219ZM290.648 57.8086C290.586 57.332 290.426 56.9023 290.168 56.5195C289.793 56.0039 289.211 55.7461 288.422 55.7461C287.297 55.7461 286.527 56.3047 286.113 57.4219C285.895 58.0156 285.785 58.8047 285.785 59.7891C285.785 60.7266 285.895 61.4805 286.113 62.0508C286.512 63.1133 287.262 63.6445 288.363 63.6445C289.145 63.6445 289.699 63.4336 290.027 63.0117C290.355 62.5898 290.555 62.043 290.625 61.3711H294.035C293.957 62.3867 293.59 63.3477 292.934 64.2539C291.887 65.7148 290.336 66.4453 288.281 66.4453C286.227 66.4453 284.715 65.8359 283.746 64.6172C282.777 63.3984 282.293 61.8164 282.293 59.8711C282.293 57.6758 282.828 55.9688 283.898 54.75C284.969 53.5312 286.445 52.9219 288.328 52.9219C289.93 52.9219 291.238 53.2812 292.254 54C293.277 54.7188 293.883 55.9883 294.07 57.8086H290.648ZM301.418 55.6406C300.645 55.6406 300.043 55.8828 299.613 56.3672C299.191 56.8516 298.926 57.5078 298.816 58.3359H304.008C303.953 57.4531 303.684 56.7852 303.199 56.332C302.723 55.8711 302.129 55.6406 301.418 55.6406ZM301.418 52.8867C302.48 52.8867 303.438 53.0859 304.289 53.4844C305.141 53.8828 305.844 54.5117 306.398 55.3711C306.898 56.1289 307.223 57.0078 307.371 58.0078C307.457 58.5938 307.492 59.4375 307.477 60.5391H298.734C298.781 61.8203 299.184 62.7188 299.941 63.2344C300.402 63.5547 300.957 63.7148 301.605 63.7148C302.293 63.7148 302.852 63.5195 303.281 63.1289C303.516 62.918 303.723 62.625 303.902 62.25H307.312C307.227 63.0078 306.832 63.7773 306.129 64.5586C305.035 65.8008 303.504 66.4219 301.535 66.4219C299.91 66.4219 298.477 65.8984 297.234 64.8516C295.992 63.8047 295.371 62.1016 295.371 59.7422C295.371 57.5312 295.93 55.8359 297.047 54.6562C298.172 53.4766 299.629 52.8867 301.418 52.8867ZM314.449 52.9219C315.223 52.9219 315.91 53.0938 316.512 53.4375C317.113 53.7734 317.602 54.2422 317.977 54.8438V48.75H321.363V66H318.117V64.2305C317.641 64.9883 317.098 65.5391 316.488 65.8828C315.879 66.2266 315.121 66.3984 314.215 66.3984C312.723 66.3984 311.465 65.7969 310.441 64.5938C309.426 63.3828 308.918 61.832 308.918 59.9414C308.918 57.7617 309.418 56.0469 310.418 54.7969C311.426 53.5469 312.77 52.9219 314.449 52.9219ZM315.176 63.5859C316.121 63.5859 316.84 63.2344 317.332 62.5312C317.824 61.8281 318.07 60.918 318.07 59.8008C318.07 58.2383 317.676 57.1211 316.887 56.4492C316.402 56.043 315.84 55.8398 315.199 55.8398C314.223 55.8398 313.504 56.2109 313.043 56.9531C312.59 57.6875 312.363 58.6016 312.363 59.6953C312.363 60.875 312.594 61.8203 313.055 62.5312C313.523 63.2344 314.23 63.5859 315.176 63.5859Z" fill="#1E1E1E"/>
</svg>
