<svg width="7" height="12" viewBox="0 0 7 12" fill="none" xmlns="http://www.w3.org/2000/svg">
<mask id="path-1-inside-1_308_11797" fill="white">
<path d="M6.05664 4.29688L5.86328 6.1875H4.33789V11.6875H2.08203V6.1875H0.943359V4.29688H2.06055V3.1582C2.06055 2.77148 2.09635 2.42773 2.16797 2.12695C2.25391 1.81185 2.39714 1.55404 2.59766 1.35352C2.79818 1.13867 3.04883 0.973958 3.34961 0.859375C3.66471 0.744792 4.05143 0.6875 4.50977 0.6875H6.03516V2.57812H5.08984C4.90365 2.57812 4.76042 2.59961 4.66016 2.64258C4.5599 2.67122 4.48112 2.72135 4.42383 2.79297C4.38086 2.85026 4.35221 2.92904 4.33789 3.0293C4.32357 3.11523 4.31641 3.22266 4.31641 3.35156V4.29688H6.03516H6.05664Z"/>
</mask>
<path d="M6.05664 4.29688L5.86328 6.1875H4.33789V11.6875H2.08203V6.1875H0.943359V4.29688H2.06055V3.1582C2.06055 2.77148 2.09635 2.42773 2.16797 2.12695C2.25391 1.81185 2.39714 1.55404 2.59766 1.35352C2.79818 1.13867 3.04883 0.973958 3.34961 0.859375C3.66471 0.744792 4.05143 0.6875 4.50977 0.6875H6.03516V2.57812H5.08984C4.90365 2.57812 4.76042 2.59961 4.66016 2.64258C4.5599 2.67122 4.48112 2.72135 4.42383 2.79297C4.38086 2.85026 4.35221 2.92904 4.33789 3.0293C4.32357 3.11523 4.31641 3.22266 4.31641 3.35156V4.29688H6.03516H6.05664Z" fill="white"/>
<path d="M6.05664 4.29688L7.05145 4.39862L7.16413 3.29688H6.05664V4.29688ZM5.86328 6.1875V7.1875H6.76622L6.85809 6.28924L5.86328 6.1875ZM4.33789 6.1875V5.1875H3.33789V6.1875H4.33789ZM4.33789 11.6875V12.6875H5.33789V11.6875H4.33789ZM2.08203 11.6875H1.08203V12.6875H2.08203V11.6875ZM2.08203 6.1875H3.08203V5.1875H2.08203V6.1875ZM0.943359 6.1875H-0.0566406V7.1875H0.943359V6.1875ZM0.943359 4.29688V3.29688H-0.0566406V4.29688H0.943359ZM2.06055 4.29688V5.29688H3.06055V4.29688H2.06055ZM2.16797 2.12695L1.2032 1.86384L1.19893 1.87952L1.19516 1.89533L2.16797 2.12695ZM2.59766 1.35352L3.30476 2.06062L3.31695 2.04843L3.32871 2.03583L2.59766 1.35352ZM3.34961 0.859375L3.00787 -0.0804185L3.00072 -0.0778198L2.99361 -0.0751127L3.34961 0.859375ZM6.03516 0.6875H7.03516V-0.3125H6.03516V0.6875ZM6.03516 2.57812V3.57812H7.03516V2.57812H6.03516ZM4.66016 2.64258L4.93488 3.6041L4.99582 3.58669L5.05408 3.56172L4.66016 2.64258ZM4.42383 2.79297L3.64296 2.16827L3.6332 2.18047L3.62383 2.19297L4.42383 2.79297ZM4.33789 3.0293L5.32428 3.1937L5.3262 3.18223L5.32784 3.17072L4.33789 3.0293ZM4.31641 4.29688H3.31641V5.29688H4.31641V4.29688ZM5.06183 4.19513L4.86847 6.08576L6.85809 6.28924L7.05145 4.39862L5.06183 4.19513ZM5.86328 5.1875H4.33789V7.1875H5.86328V5.1875ZM3.33789 6.1875V11.6875H5.33789V6.1875H3.33789ZM4.33789 10.6875H2.08203V12.6875H4.33789V10.6875ZM3.08203 11.6875V6.1875H1.08203V11.6875H3.08203ZM2.08203 5.1875H0.943359V7.1875H2.08203V5.1875ZM1.94336 6.1875V4.29688H-0.0566406V6.1875H1.94336ZM0.943359 5.29688H2.06055V3.29688H0.943359V5.29688ZM3.06055 4.29688V3.1582H1.06055V4.29688H3.06055ZM3.06055 3.1582C3.06055 2.83095 3.09107 2.56734 3.14077 2.35857L1.19516 1.89533C1.10164 2.28813 1.06055 2.71202 1.06055 3.1582H3.06055ZM3.13273 2.39007C3.17992 2.21706 3.24492 2.12047 3.30476 2.06062L1.89055 0.646409C1.54935 0.987608 1.3279 1.40664 1.2032 1.86384L3.13273 2.39007ZM3.32871 2.03583C3.41547 1.94288 3.53366 1.85937 3.7056 1.79386L2.99361 -0.0751127C2.564 0.0885503 2.18088 0.334467 1.8666 0.671197L3.32871 2.03583ZM3.69135 1.79917C3.86487 1.73607 4.12815 1.6875 4.50977 1.6875V-0.3125C3.97471 -0.3125 3.46455 -0.246486 3.00787 -0.0804185L3.69135 1.79917ZM4.50977 1.6875H6.03516V-0.3125H4.50977V1.6875ZM5.03516 0.6875V2.57812H7.03516V0.6875H5.03516ZM6.03516 1.57812H5.08984V3.57812H6.03516V1.57812ZM5.08984 1.57812C4.85059 1.57812 4.54921 1.60216 4.26624 1.72343L5.05408 3.56172C5.02813 3.57284 5.00894 3.57853 4.9993 3.58109C4.98954 3.58367 4.98629 3.5839 4.99111 3.58317C4.99581 3.58247 5.00626 3.58115 5.02333 3.58003C5.04031 3.57893 5.06231 3.57812 5.08984 3.57812V1.57812ZM4.38544 1.68105C4.11399 1.75861 3.84722 1.91294 3.64296 2.16827L5.2047 3.41766C5.11502 3.52977 5.0058 3.58384 4.93488 3.6041L4.38544 1.68105ZM3.62383 2.19297C3.44685 2.42894 3.37675 2.68619 3.34794 2.88788L5.32784 3.17072C5.32767 3.17189 5.31487 3.27159 5.22383 3.39297L3.62383 2.19297ZM3.3515 2.8649C3.32494 3.02425 3.31641 3.19106 3.31641 3.35156H5.31641C5.31641 3.25425 5.3222 3.20622 5.32428 3.1937L3.3515 2.8649ZM3.31641 3.35156V4.29688H5.31641V3.35156H3.31641ZM4.31641 5.29688H6.03516V3.29688H4.31641V5.29688ZM6.03516 5.29688H6.05664V3.29688H6.03516V5.29688Z" fill="white" mask="url(#path-1-inside-1_308_11797)"/>
</svg>
