<svg width="1319" height="247" viewBox="0 0 1319 247" fill="none" xmlns="http://www.w3.org/2000/svg">
<path d="M384.133 168H380.547V150.727H384.133V168ZM385.926 157.723V155.344H387.707V151.781H391.012V155.344H393.086V157.723H391.012V164.473C391.012 164.996 391.078 165.324 391.211 165.457C391.344 165.582 391.75 165.645 392.43 165.645C392.531 165.645 392.637 165.645 392.746 165.645C392.863 165.637 392.977 165.629 393.086 165.621V168.117L391.504 168.176C389.926 168.23 388.848 167.957 388.27 167.355C387.895 166.973 387.707 166.383 387.707 165.586V157.723H385.926ZM400.27 157.641C399.496 157.641 398.895 157.883 398.465 158.367C398.043 158.852 397.777 159.508 397.668 160.336H402.859C402.805 159.453 402.535 158.785 402.051 158.332C401.574 157.871 400.98 157.641 400.27 157.641ZM400.27 154.887C401.332 154.887 402.289 155.086 403.141 155.484C403.992 155.883 404.695 156.512 405.25 157.371C405.75 158.129 406.074 159.008 406.223 160.008C406.309 160.594 406.344 161.438 406.328 162.539H397.586C397.633 163.82 398.035 164.719 398.793 165.234C399.254 165.555 399.809 165.715 400.457 165.715C401.145 165.715 401.703 165.52 402.133 165.129C402.367 164.918 402.574 164.625 402.754 164.25H406.164C406.078 165.008 405.684 165.777 404.98 166.559C403.887 167.801 402.355 168.422 400.387 168.422C398.762 168.422 397.328 167.898 396.086 166.852C394.844 165.805 394.223 164.102 394.223 161.742C394.223 159.531 394.781 157.836 395.898 156.656C397.023 155.477 398.48 154.887 400.27 154.887ZM422.863 154.945C423.426 154.945 423.98 155.055 424.527 155.273C425.074 155.492 425.57 155.875 426.016 156.422C426.375 156.867 426.617 157.414 426.742 158.062C426.82 158.492 426.859 159.121 426.859 159.949L426.836 168H423.414V159.867C423.414 159.383 423.336 158.984 423.18 158.672C422.883 158.078 422.336 157.781 421.539 157.781C420.617 157.781 419.98 158.164 419.629 158.93C419.449 159.336 419.359 159.824 419.359 160.395V168H415.996V160.395C415.996 159.637 415.918 159.086 415.762 158.742C415.48 158.125 414.93 157.816 414.109 157.816C413.156 157.816 412.516 158.125 412.188 158.742C412.008 159.094 411.918 159.617 411.918 160.312V168H408.531V155.25H411.777V157.113C412.191 156.449 412.582 155.977 412.949 155.695C413.598 155.195 414.438 154.945 415.469 154.945C416.445 154.945 417.234 155.16 417.836 155.59C418.32 155.988 418.688 156.5 418.938 157.125C419.375 156.375 419.918 155.824 420.566 155.473C421.254 155.121 422.02 154.945 422.863 154.945ZM432.543 163.922C432.613 164.516 432.766 164.938 433 165.188C433.414 165.633 434.18 165.855 435.297 165.855C435.953 165.855 436.473 165.758 436.855 165.562C437.246 165.367 437.441 165.074 437.441 164.684C437.441 164.309 437.285 164.023 436.973 163.828C436.66 163.633 435.5 163.297 433.492 162.82C432.047 162.461 431.027 162.012 430.434 161.473C429.84 160.941 429.543 160.176 429.543 159.176C429.543 157.996 430.004 156.984 430.926 156.141C431.855 155.289 433.16 154.863 434.84 154.863C436.434 154.863 437.73 155.184 438.73 155.824C439.738 156.457 440.316 157.555 440.465 159.117H437.125C437.078 158.688 436.957 158.348 436.762 158.098C436.395 157.645 435.77 157.418 434.887 157.418C434.16 157.418 433.641 157.531 433.328 157.758C433.023 157.984 432.871 158.25 432.871 158.555C432.871 158.938 433.035 159.215 433.363 159.387C433.691 159.566 434.852 159.875 436.844 160.312C438.172 160.625 439.168 161.098 439.832 161.73C440.488 162.371 440.816 163.172 440.816 164.133C440.816 165.398 440.344 166.434 439.398 167.238C438.461 168.035 437.008 168.434 435.039 168.434C433.031 168.434 431.547 168.012 430.586 167.168C429.633 166.316 429.156 165.234 429.156 163.922H432.543ZM457.891 165.422C459.32 165.422 460.453 164.895 461.289 163.84C462.133 162.785 462.555 161.285 462.555 159.34C462.555 157.402 462.133 155.906 461.289 154.852C460.453 153.789 459.32 153.258 457.891 153.258C456.461 153.258 455.32 153.785 454.469 154.84C453.617 155.895 453.191 157.395 453.191 159.34C453.191 161.285 453.617 162.785 454.469 163.84C455.32 164.895 456.461 165.422 457.891 165.422ZM466.164 159.34C466.164 162.441 465.293 164.816 463.551 166.465C462.246 167.809 460.359 168.48 457.891 168.48C455.422 168.48 453.535 167.809 452.23 166.465C450.48 164.816 449.605 162.441 449.605 159.34C449.605 156.176 450.48 153.801 452.23 152.215C453.535 150.871 455.422 150.199 457.891 150.199C460.359 150.199 462.246 150.871 463.551 152.215C465.293 153.801 466.164 156.176 466.164 159.34ZM473.371 150.551C473.582 150.551 473.773 150.559 473.945 150.574C474.117 150.582 474.352 150.598 474.648 150.621V153.34C474.461 153.316 474.145 153.301 473.699 153.293C473.262 153.277 472.957 153.375 472.785 153.586C472.621 153.789 472.539 154.016 472.539 154.266C472.539 154.516 472.539 154.875 472.539 155.344H474.73V157.699H472.539V168H469.211V157.699H467.348V155.344H469.176V154.523C469.176 153.156 469.406 152.215 469.867 151.699C470.352 150.934 471.52 150.551 473.371 150.551ZM483.602 150.75H495.848V153.785H487.188V157.758H494.77V160.758H487.188V168H483.602V150.75ZM503.734 165.645C504.711 165.645 505.461 165.297 505.984 164.602C506.508 163.906 506.77 162.918 506.77 161.637C506.77 160.355 506.508 159.371 505.984 158.684C505.461 157.988 504.711 157.641 503.734 157.641C502.758 157.641 502.004 157.988 501.473 158.684C500.949 159.371 500.688 160.355 500.688 161.637C500.688 162.918 500.949 163.906 501.473 164.602C502.004 165.297 502.758 165.645 503.734 165.645ZM510.273 161.637C510.273 163.512 509.734 165.117 508.656 166.453C507.578 167.781 505.941 168.445 503.746 168.445C501.551 168.445 499.914 167.781 498.836 166.453C497.758 165.117 497.219 163.512 497.219 161.637C497.219 159.793 497.758 158.195 498.836 156.844C499.914 155.492 501.551 154.816 503.746 154.816C505.941 154.816 507.578 155.492 508.656 156.844C509.734 158.195 510.273 159.793 510.273 161.637ZM518.406 165.645C519.383 165.645 520.133 165.297 520.656 164.602C521.18 163.906 521.441 162.918 521.441 161.637C521.441 160.355 521.18 159.371 520.656 158.684C520.133 157.988 519.383 157.641 518.406 157.641C517.43 157.641 516.676 157.988 516.145 158.684C515.621 159.371 515.359 160.355 515.359 161.637C515.359 162.918 515.621 163.906 516.145 164.602C516.676 165.297 517.43 165.645 518.406 165.645ZM524.945 161.637C524.945 163.512 524.406 165.117 523.328 166.453C522.25 167.781 520.613 168.445 518.418 168.445C516.223 168.445 514.586 167.781 513.508 166.453C512.43 165.117 511.891 163.512 511.891 161.637C511.891 159.793 512.43 158.195 513.508 156.844C514.586 155.492 516.223 154.816 518.418 154.816C520.613 154.816 522.25 155.492 523.328 156.844C524.406 158.195 524.945 159.793 524.945 161.637ZM532.059 154.922C532.832 154.922 533.52 155.094 534.121 155.438C534.723 155.773 535.211 156.242 535.586 156.844V150.75H538.973V168H535.727V166.23C535.25 166.988 534.707 167.539 534.098 167.883C533.488 168.227 532.73 168.398 531.824 168.398C530.332 168.398 529.074 167.797 528.051 166.594C527.035 165.383 526.527 163.832 526.527 161.941C526.527 159.762 527.027 158.047 528.027 156.797C529.035 155.547 530.379 154.922 532.059 154.922ZM532.785 165.586C533.73 165.586 534.449 165.234 534.941 164.531C535.434 163.828 535.68 162.918 535.68 161.801C535.68 160.238 535.285 159.121 534.496 158.449C534.012 158.043 533.449 157.84 532.809 157.84C531.832 157.84 531.113 158.211 530.652 158.953C530.199 159.688 529.973 160.602 529.973 161.695C529.973 162.875 530.203 163.82 530.664 164.531C531.133 165.234 531.84 165.586 532.785 165.586Z" fill="white"/>
<path d="M433.523 228.309C433.523 229.441 433.706 230.379 434.07 231.121C434.747 232.488 435.978 233.172 437.762 233.172C438.855 233.172 439.806 232.801 440.613 232.059C441.434 231.303 441.844 230.223 441.844 228.816C441.844 226.954 441.089 225.711 439.578 225.086C438.719 224.734 437.365 224.559 435.516 224.559V220.574C437.326 220.548 438.589 220.372 439.305 220.047C440.542 219.5 441.16 218.393 441.16 216.727C441.16 215.646 440.841 214.767 440.203 214.09C439.578 213.413 438.693 213.074 437.547 213.074C436.232 213.074 435.262 213.491 434.637 214.324C434.025 215.158 433.732 216.271 433.758 217.664H428.562C428.615 216.258 428.855 214.923 429.285 213.66C429.741 212.553 430.457 211.531 431.434 210.594C432.163 209.93 433.029 209.422 434.031 209.07C435.034 208.719 436.264 208.543 437.723 208.543C440.431 208.543 442.612 209.246 444.266 210.652C445.932 212.046 446.766 213.921 446.766 216.277C446.766 217.944 446.271 219.35 445.281 220.496C444.656 221.212 444.005 221.701 443.328 221.961C443.836 221.961 444.565 222.397 445.516 223.27C446.935 224.585 447.645 226.382 447.645 228.66C447.645 231.056 446.811 233.165 445.145 234.988C443.491 236.798 441.036 237.703 437.781 237.703C433.771 237.703 430.984 236.395 429.422 233.777C428.602 232.384 428.146 230.561 428.055 228.309H433.523ZM450.516 237C450.568 234.969 451.004 233.113 451.824 231.434C452.618 229.546 454.493 227.547 457.449 225.438C460.014 223.602 461.674 222.286 462.43 221.492C463.589 220.255 464.168 218.901 464.168 217.43C464.168 216.232 463.836 215.236 463.172 214.441C462.508 213.647 461.557 213.25 460.32 213.25C458.628 213.25 457.475 213.882 456.863 215.145C456.512 215.874 456.303 217.033 456.238 218.621H450.828C450.919 216.212 451.355 214.266 452.137 212.781C453.621 209.956 456.258 208.543 460.047 208.543C463.042 208.543 465.424 209.376 467.195 211.043C468.966 212.697 469.852 214.891 469.852 217.625C469.852 219.721 469.227 221.583 467.977 223.211C467.156 224.292 465.809 225.496 463.934 226.824L461.707 228.406C460.314 229.396 459.357 230.112 458.836 230.555C458.328 230.997 457.898 231.512 457.547 232.098H469.91V237H450.516ZM478.465 223.113C478.465 226.368 478.732 228.862 479.266 230.594C479.799 232.312 480.893 233.172 482.547 233.172C484.201 233.172 485.281 232.312 485.789 230.594C486.31 228.862 486.57 226.368 486.57 223.113C486.57 219.702 486.31 217.176 485.789 215.535C485.281 213.895 484.201 213.074 482.547 213.074C480.893 213.074 479.799 213.895 479.266 215.535C478.732 217.176 478.465 219.702 478.465 223.113ZM482.547 208.484C486.154 208.484 488.68 209.754 490.125 212.293C491.583 214.832 492.312 218.439 492.312 223.113C492.312 227.788 491.583 231.388 490.125 233.914C488.68 236.44 486.154 237.703 482.547 237.703C478.94 237.703 476.408 236.44 474.949 233.914C473.504 231.388 472.781 227.788 472.781 223.113C472.781 218.439 473.504 214.832 474.949 212.293C476.408 209.754 478.94 208.484 482.547 208.484Z" fill="white"/>
<path d="M420.001 65.9528C421.106 65.9528 422.003 65.0574 422.003 63.9528C422.003 62.8482 421.106 61.9528 420.001 61.9528C418.896 61.9528 418 62.8482 418 63.9528C418 65.0574 418.896 65.9528 420.001 65.9528Z" fill="#FF9F0D"/>
<path d="M428.001 59.957C429.106 59.957 430.003 59.0616 430.003 57.957C430.003 56.8524 429.106 55.957 428.001 55.957C426.896 55.957 426 56.8524 426 57.957C426 59.0616 426.896 59.957 428.001 59.957Z" fill="#FF9F0D"/>
<path d="M448.002 57.9586C449.107 57.9586 450.003 57.0632 450.003 55.9586C450.003 54.854 449.107 53.9586 448.002 53.9586C446.896 53.9586 446 54.854 446 55.9586C446 57.0632 446.896 57.9586 448.002 57.9586Z" fill="#FF9F0D"/>
<path d="M414.003 75.9449C415.108 75.9449 416.004 75.0495 416.004 73.9449C416.004 72.8403 415.108 71.9449 414.003 71.9449C412.897 71.9449 412.001 72.8403 412.001 73.9449C412.001 75.0495 412.897 75.9449 414.003 75.9449Z" fill="#FF9F0D"/>
<path d="M424.002 73.9465C425.107 73.9465 426.003 73.0511 426.003 71.9465C426.003 70.8419 425.107 69.9465 424.002 69.9465C422.896 69.9465 422 70.8419 422 71.9465C422 73.0511 422.896 73.9465 424.002 73.9465Z" fill="#FF9F0D"/>
<path d="M432.001 67.9509C433.107 67.9509 434.003 67.0555 434.003 65.951C434.003 64.8464 433.107 63.951 432.001 63.951C430.896 63.951 430 64.8464 430 65.951C430 67.0555 430.896 67.9509 432.001 67.9509Z" fill="#FF9F0D"/>
<path d="M514 21.9831H486V13.9893C486 12.8856 486.895 11.9908 488 11.9908H504C507.314 11.9908 510 9.30657 510 5.9954C510 2.68423 507.314 0 504 0H486C479.375 0.00660969 474.007 5.37121 474 11.9908V21.9831H446C442.686 21.9831 440 24.6674 440 27.9785V29.977C440.009 32.5524 441.666 34.8333 444.114 35.6387L444.86 46.0787C443.912 46.0227 442.966 45.9648 442 45.9648C439.103 45.9709 436.213 46.2425 433.366 46.7761L428.514 40.481C433.16 35.8845 433.418 30.4666 431.028 27.369C428.638 24.2714 423.312 23.1443 417.698 26.4537L416.4 24.761C415.971 24.1749 415.258 23.8671 414.537 23.9571C413.816 24.0471 413.201 24.5207 412.93 25.1943C412.659 25.8678 412.774 26.6353 413.232 27.1991L414.536 28.8938C409.874 33.4903 409.646 38.9202 412.022 42.0058C414.44 45.1414 419.786 46.2026 425.352 42.9211L429.1 47.7834C414.484 51.9602 404 62.9917 404 75.9418C403.995 76.8214 404.046 77.7005 404.152 78.5738C404.393 80.824 405.881 82.7471 408 83.5459V87.9326C403.976 87.9276 400.578 90.915 400.07 94.9033C399.562 98.8916 402.103 102.634 406 103.637V107.917C406.001 110.914 407.131 113.801 409.166 116.003H402C400.895 116.003 400 116.898 400 118.002C400 119.105 400.895 120 402 120H518C519.105 120 520 119.105 520 118.002C520 116.898 519.105 116.003 518 116.003H507.514C509.349 114.019 510.456 111.472 510.656 108.779L515.886 35.6347C518.333 34.8303 519.99 32.5512 520 29.977V27.9785C520 24.6674 517.314 21.9831 514 21.9831ZM415.184 39.5697C413.584 37.4873 415.052 34.2018 417 32.0994L418.108 33.5363C418.537 34.1225 419.25 34.4302 419.971 34.3402C420.692 34.2502 421.307 33.7766 421.578 33.103C421.849 32.4295 421.734 31.662 421.276 31.0982L420.168 29.6613C422.586 28.3762 426.216 27.6808 427.86 29.8131C429.848 32.3912 427.196 36.6299 424.574 38.6484C421.952 40.6668 417.174 42.1477 415.184 39.5697ZM478 11.9908C478 7.57591 481.582 3.99694 486 3.99694H504C505.105 3.99694 506 4.89168 506 5.9954C506 7.09913 505.105 7.99387 504 7.99387H488C484.686 7.99387 482 10.6781 482 13.9893V21.9831H478V11.9908ZM511.136 45.9648H448.862L448.148 35.9724H511.852L511.136 45.9648ZM507.42 97.9249H483.716C483.896 97.2737 483.992 96.602 484 95.9265C484 91.5116 480.418 87.9326 476 87.9326V83.5359C478.112 82.7464 479.599 80.8356 479.844 78.5957C479.952 77.7153 480.004 76.8288 480 75.9418C480 75.1864 479.926 74.4449 479.856 73.7035C483.801 72.7677 486.418 69.0274 485.944 65.0039C485.47 60.9804 482.054 57.95 478 57.9556C476.43 57.9644 474.898 58.4411 473.6 59.3245C470.1 55.3061 465.755 52.1091 460.876 49.9617H510.852L507.42 97.9249ZM476 91.9295C478.209 91.9295 480 93.719 480 95.9265C480 98.1339 478.209 99.9234 476 99.9234H438.828L446.828 91.9295H476ZM478 107.917V103.637C479.197 103.324 480.306 102.737 481.236 101.922H507.134L506.666 108.491C506.346 112.666 502.87 115.895 498.68 115.911H474.92C476.902 113.719 477.999 110.871 478 107.917ZM475.946 62.552C476.562 62.1668 477.273 61.9593 478 61.9525C479.976 61.9437 481.659 63.3853 481.952 65.3377C482.245 67.2901 481.059 69.1616 479.168 69.7325C478.467 67.1888 477.38 64.7672 475.946 62.552ZM431.716 51.1828L436.416 57.2801C437.092 58.1477 438.343 58.3062 439.215 57.6348C440.087 56.9634 440.251 55.7144 439.584 54.84L436.142 50.3754C438.083 50.108 440.04 49.9698 442 49.9617C460.748 49.9617 476 61.6168 476 75.9418C476.002 76.6765 475.96 77.4106 475.872 78.1401C475.769 79.1651 474.903 79.9439 473.872 79.9387H410.12C409.081 79.9369 408.215 79.1455 408.12 78.1121C408.036 77.3918 407.996 76.667 408 75.9418C408 64.3507 417.982 54.5222 431.716 51.1828ZM412 83.9356H472V87.9326H446C445.47 87.9327 444.961 88.1433 444.586 88.5181L430.096 102.995L417.496 88.6061C417.117 88.1781 416.572 87.9329 416 87.9326H412V83.9356ZM404 95.9265C404 93.719 405.791 91.9295 408 91.9295H415.092L422.092 99.9234H408C405.791 99.9234 404 98.1339 404 95.9265ZM418 115.911C413.582 115.911 410 112.332 410 107.917V103.92H425.6L427.096 105.629C427.826 106.46 428.868 106.952 429.974 106.99H430.104C431.165 106.989 432.183 106.568 432.934 105.819L434.828 103.92H474V107.917C474 112.332 470.418 115.911 466 115.911H418ZM516 29.977C516 31.0807 515.105 31.9755 514 31.9755H446C444.895 31.9755 444 31.0807 444 29.977V27.9785C444 26.8748 444.895 25.9801 446 25.9801H514C515.105 25.9801 516 26.8748 516 27.9785V29.977Z" fill="#FF9F0D"/>
<path d="M498 53.9586C493.582 53.9586 490 57.5376 490 61.9525C490 66.3674 493.582 69.9464 498 69.9464C502.419 69.9464 506 66.3674 506 61.9525C506 57.5376 502.419 53.9586 498 53.9586ZM498 65.9494C495.791 65.9494 494 64.1599 494 61.9525C494 59.745 495.791 57.9556 498 57.9556C500.209 57.9556 502 59.745 502 61.9525C502 64.1599 500.209 65.9494 498 65.9494Z" fill="#FF9F0D"/>
<path d="M492 79.9386C488.686 79.9386 486 82.6229 486 85.934C486 89.2452 488.686 91.9294 492 91.9294C495.313 91.9294 498 89.2452 498 85.934C498 82.6229 495.313 79.9386 492 79.9386ZM492 87.9325C490.895 87.9325 490 87.0378 490 85.934C490 84.8303 490.895 83.9356 492 83.9356C493.104 83.9356 494 84.8303 494 85.934C494 87.0378 493.104 87.9325 492 87.9325Z" fill="#FF9F0D"/>
<path d="M11.5547 156.223C11.5547 155.324 11.3164 154.684 10.8398 154.301C10.3711 153.918 9.71094 153.727 8.85938 153.727H5.49609V158.812H8.85938C9.71094 158.812 10.3711 158.605 10.8398 158.191C11.3164 157.777 11.5547 157.121 11.5547 156.223ZM15.1289 156.199C15.1289 158.238 14.6133 159.68 13.582 160.523C12.5508 161.367 11.0781 161.789 9.16406 161.789H5.49609V168H1.91016V150.727H9.43359C11.168 150.727 12.5508 151.172 13.582 152.062C14.6133 152.953 15.1289 154.332 15.1289 156.199ZM24.5039 154.922C24.5664 154.922 24.6172 154.926 24.6562 154.934C24.7031 154.934 24.8008 154.938 24.9492 154.945V158.367C24.7383 158.344 24.5508 158.328 24.3867 158.32C24.2227 158.312 24.0898 158.309 23.9883 158.309C22.6445 158.309 21.7422 158.746 21.2812 159.621C21.0234 160.113 20.8945 160.871 20.8945 161.895V168H17.5312V155.227H20.7188V157.453C21.2344 156.602 21.6836 156.02 22.0664 155.707C22.6914 155.184 23.5039 154.922 24.5039 154.922ZM32.6484 165.645C33.625 165.645 34.375 165.297 34.8984 164.602C35.4219 163.906 35.6836 162.918 35.6836 161.637C35.6836 160.355 35.4219 159.371 34.8984 158.684C34.375 157.988 33.625 157.641 32.6484 157.641C31.6719 157.641 30.918 157.988 30.3867 158.684C29.8633 159.371 29.6016 160.355 29.6016 161.637C29.6016 162.918 29.8633 163.906 30.3867 164.602C30.918 165.297 31.6719 165.645 32.6484 165.645ZM39.1875 161.637C39.1875 163.512 38.6484 165.117 37.5703 166.453C36.4922 167.781 34.8555 168.445 32.6602 168.445C30.4648 168.445 28.8281 167.781 27.75 166.453C26.6719 165.117 26.1328 163.512 26.1328 161.637C26.1328 159.793 26.6719 158.195 27.75 156.844C28.8281 155.492 30.4648 154.816 32.6602 154.816C34.8555 154.816 36.4922 155.492 37.5703 156.844C38.6484 158.195 39.1875 159.793 39.1875 161.637ZM46.3008 150.551C46.5117 150.551 46.7031 150.559 46.875 150.574C47.0469 150.582 47.2812 150.598 47.5781 150.621V153.34C47.3906 153.316 47.0742 153.301 46.6289 153.293C46.1914 153.277 45.8867 153.375 45.7148 153.586C45.5508 153.789 45.4688 154.016 45.4688 154.266C45.4688 154.516 45.4688 154.875 45.4688 155.344H47.6602V157.699H45.4688V168H42.1406V157.699H40.2773V155.344H42.1055V154.523C42.1055 153.156 42.3359 152.215 42.7969 151.699C43.2812 150.934 44.4492 150.551 46.3008 150.551ZM54.6211 157.641C53.8477 157.641 53.2461 157.883 52.8164 158.367C52.3945 158.852 52.1289 159.508 52.0195 160.336H57.2109C57.1562 159.453 56.8867 158.785 56.4023 158.332C55.9258 157.871 55.332 157.641 54.6211 157.641ZM54.6211 154.887C55.6836 154.887 56.6406 155.086 57.4922 155.484C58.3438 155.883 59.0469 156.512 59.6016 157.371C60.1016 158.129 60.4258 159.008 60.5742 160.008C60.6602 160.594 60.6953 161.438 60.6797 162.539H51.9375C51.9844 163.82 52.3867 164.719 53.1445 165.234C53.6055 165.555 54.1602 165.715 54.8086 165.715C55.4961 165.715 56.0547 165.52 56.4844 165.129C56.7188 164.918 56.9258 164.625 57.1055 164.25H60.5156C60.4297 165.008 60.0352 165.777 59.332 166.559C58.2383 167.801 56.707 168.422 54.7383 168.422C53.1133 168.422 51.6797 167.898 50.4375 166.852C49.1953 165.805 48.5742 164.102 48.5742 161.742C48.5742 159.531 49.1328 157.836 50.25 156.656C51.375 155.477 52.832 154.887 54.6211 154.887ZM65.543 163.922C65.6133 164.516 65.7656 164.938 66 165.188C66.4141 165.633 67.1797 165.855 68.2969 165.855C68.9531 165.855 69.4727 165.758 69.8555 165.562C70.2461 165.367 70.4414 165.074 70.4414 164.684C70.4414 164.309 70.2852 164.023 69.9727 163.828C69.6602 163.633 68.5 163.297 66.4922 162.82C65.0469 162.461 64.0273 162.012 63.4336 161.473C62.8398 160.941 62.543 160.176 62.543 159.176C62.543 157.996 63.0039 156.984 63.9258 156.141C64.8555 155.289 66.1602 154.863 67.8398 154.863C69.4336 154.863 70.7305 155.184 71.7305 155.824C72.7383 156.457 73.3164 157.555 73.4648 159.117H70.125C70.0781 158.688 69.957 158.348 69.7617 158.098C69.3945 157.645 68.7695 157.418 67.8867 157.418C67.1602 157.418 66.6406 157.531 66.3281 157.758C66.0234 157.984 65.8711 158.25 65.8711 158.555C65.8711 158.938 66.0352 159.215 66.3633 159.387C66.6914 159.566 67.8516 159.875 69.8438 160.312C71.1719 160.625 72.168 161.098 72.832 161.73C73.4883 162.371 73.8164 163.172 73.8164 164.133C73.8164 165.398 73.3438 166.434 72.3984 167.238C71.4609 168.035 70.0078 168.434 68.0391 168.434C66.0312 168.434 64.5469 168.012 63.5859 167.168C62.6328 166.316 62.1562 165.234 62.1562 163.922H65.543ZM78.9023 163.922C78.9727 164.516 79.125 164.938 79.3594 165.188C79.7734 165.633 80.5391 165.855 81.6562 165.855C82.3125 165.855 82.832 165.758 83.2148 165.562C83.6055 165.367 83.8008 165.074 83.8008 164.684C83.8008 164.309 83.6445 164.023 83.332 163.828C83.0195 163.633 81.8594 163.297 79.8516 162.82C78.4062 162.461 77.3867 162.012 76.793 161.473C76.1992 160.941 75.9023 160.176 75.9023 159.176C75.9023 157.996 76.3633 156.984 77.2852 156.141C78.2148 155.289 79.5195 154.863 81.1992 154.863C82.793 154.863 84.0898 155.184 85.0898 155.824C86.0977 156.457 86.6758 157.555 86.8242 159.117H83.4844C83.4375 158.688 83.3164 158.348 83.1211 158.098C82.7539 157.645 82.1289 157.418 81.2461 157.418C80.5195 157.418 80 157.531 79.6875 157.758C79.3828 157.984 79.2305 158.25 79.2305 158.555C79.2305 158.938 79.3945 159.215 79.7227 159.387C80.0508 159.566 81.2109 159.875 83.2031 160.312C84.5312 160.625 85.5273 161.098 86.1914 161.73C86.8477 162.371 87.1758 163.172 87.1758 164.133C87.1758 165.398 86.7031 166.434 85.7578 167.238C84.8203 168.035 83.3672 168.434 81.3984 168.434C79.3906 168.434 77.9062 168.012 76.9453 167.168C75.9922 166.316 75.5156 165.234 75.5156 163.922H78.9023ZM93.0938 153.703H89.707V150.621H93.0938V153.703ZM89.707 155.227H93.0938V168H89.707V155.227ZM102.07 165.645C103.047 165.645 103.797 165.297 104.32 164.602C104.844 163.906 105.105 162.918 105.105 161.637C105.105 160.355 104.844 159.371 104.32 158.684C103.797 157.988 103.047 157.641 102.07 157.641C101.094 157.641 100.34 157.988 99.8086 158.684C99.2852 159.371 99.0234 160.355 99.0234 161.637C99.0234 162.918 99.2852 163.906 99.8086 164.602C100.34 165.297 101.094 165.645 102.07 165.645ZM108.609 161.637C108.609 163.512 108.07 165.117 106.992 166.453C105.914 167.781 104.277 168.445 102.082 168.445C99.8867 168.445 98.25 167.781 97.1719 166.453C96.0938 165.117 95.5547 163.512 95.5547 161.637C95.5547 159.793 96.0938 158.195 97.1719 156.844C98.25 155.492 99.8867 154.816 102.082 154.816C104.277 154.816 105.914 155.492 106.992 156.844C108.07 158.195 108.609 159.793 108.609 161.637ZM118.09 154.922C119.41 154.922 120.488 155.27 121.324 155.965C122.168 156.652 122.59 157.797 122.59 159.398V168H119.168V160.23C119.168 159.559 119.078 159.043 118.898 158.684C118.57 158.027 117.945 157.699 117.023 157.699C115.891 157.699 115.113 158.18 114.691 159.141C114.473 159.648 114.363 160.297 114.363 161.086V168H111.035V155.25H114.258V157.113C114.688 156.457 115.094 155.984 115.477 155.695C116.164 155.18 117.035 154.922 118.09 154.922ZM132.727 161.789C132.516 161.922 132.301 162.031 132.082 162.117C131.871 162.195 131.578 162.27 131.203 162.34L130.453 162.48C129.75 162.605 129.246 162.758 128.941 162.938C128.426 163.242 128.168 163.715 128.168 164.355C128.168 164.926 128.324 165.34 128.637 165.598C128.957 165.848 129.344 165.973 129.797 165.973C130.516 165.973 131.176 165.762 131.777 165.34C132.387 164.918 132.703 164.148 132.727 163.031V161.789ZM130.699 160.23C131.316 160.152 131.758 160.055 132.023 159.938C132.5 159.734 132.738 159.418 132.738 158.988C132.738 158.465 132.555 158.105 132.188 157.91C131.828 157.707 131.297 157.605 130.594 157.605C129.805 157.605 129.246 157.801 128.918 158.191C128.684 158.48 128.527 158.871 128.449 159.363H125.227C125.297 158.246 125.609 157.328 126.164 156.609C127.047 155.484 128.562 154.922 130.711 154.922C132.109 154.922 133.352 155.199 134.438 155.754C135.523 156.309 136.066 157.355 136.066 158.895V164.754C136.066 165.16 136.074 165.652 136.09 166.23C136.113 166.668 136.18 166.965 136.289 167.121C136.398 167.277 136.562 167.406 136.781 167.508V168H133.148C133.047 167.742 132.977 167.5 132.938 167.273C132.898 167.047 132.867 166.789 132.844 166.5C132.383 167 131.852 167.426 131.25 167.777C130.531 168.191 129.719 168.398 128.812 168.398C127.656 168.398 126.699 168.07 125.941 167.414C125.191 166.75 124.816 165.812 124.816 164.602C124.816 163.031 125.422 161.895 126.633 161.191C127.297 160.809 128.273 160.535 129.562 160.371L130.699 160.23ZM142.453 168H139.113V150.727H142.453V168ZM151.922 159.504C151.922 156.488 152.73 154.164 154.348 152.531C155.754 151.109 157.543 150.398 159.715 150.398C162.621 150.398 164.746 151.352 166.09 153.258C166.832 154.328 167.23 155.402 167.285 156.48H163.676C163.441 155.652 163.141 155.027 162.773 154.605C162.117 153.855 161.145 153.48 159.855 153.48C158.543 153.48 157.508 154.012 156.75 155.074C155.992 156.129 155.613 157.625 155.613 159.562C155.613 161.5 156.012 162.953 156.809 163.922C157.613 164.883 158.633 165.363 159.867 165.363C161.133 165.363 162.098 164.949 162.762 164.121C163.129 163.676 163.434 163.008 163.676 162.117H167.25C166.938 164 166.137 165.531 164.848 166.711C163.566 167.891 161.922 168.48 159.914 168.48C157.43 168.48 155.477 167.684 154.055 166.09C152.633 164.488 151.922 162.293 151.922 159.504ZM176.789 154.898C177.578 154.898 178.293 155.035 178.934 155.309C179.582 155.582 180.113 156 180.527 156.562C180.879 157.039 181.094 157.531 181.172 158.039C181.25 158.539 181.289 159.359 181.289 160.5V168H177.879V160.23C177.879 159.543 177.762 158.988 177.527 158.566C177.223 157.973 176.645 157.676 175.793 157.676C174.91 157.676 174.238 157.973 173.777 158.566C173.324 159.152 173.098 159.992 173.098 161.086V168H169.77V150.785H173.098V156.891C173.582 156.148 174.141 155.633 174.773 155.344C175.414 155.047 176.086 154.898 176.789 154.898ZM189.457 157.641C188.684 157.641 188.082 157.883 187.652 158.367C187.23 158.852 186.965 159.508 186.855 160.336H192.047C191.992 159.453 191.723 158.785 191.238 158.332C190.762 157.871 190.168 157.641 189.457 157.641ZM189.457 154.887C190.52 154.887 191.477 155.086 192.328 155.484C193.18 155.883 193.883 156.512 194.438 157.371C194.938 158.129 195.262 159.008 195.41 160.008C195.496 160.594 195.531 161.438 195.516 162.539H186.773C186.82 163.82 187.223 164.719 187.98 165.234C188.441 165.555 188.996 165.715 189.645 165.715C190.332 165.715 190.891 165.52 191.32 165.129C191.555 164.918 191.762 164.625 191.941 164.25H195.352C195.266 165.008 194.871 165.777 194.168 166.559C193.074 167.801 191.543 168.422 189.574 168.422C187.949 168.422 186.516 167.898 185.273 166.852C184.031 165.805 183.41 164.102 183.41 161.742C183.41 159.531 183.969 157.836 185.086 156.656C186.211 155.477 187.668 154.887 189.457 154.887ZM202.488 150.551C202.699 150.551 202.891 150.559 203.062 150.574C203.234 150.582 203.469 150.598 203.766 150.621V153.34C203.578 153.316 203.262 153.301 202.816 153.293C202.379 153.277 202.074 153.375 201.902 153.586C201.738 153.789 201.656 154.016 201.656 154.266C201.656 154.516 201.656 154.875 201.656 155.344H203.848V157.699H201.656V168H198.328V157.699H196.465V155.344H198.293V154.523C198.293 153.156 198.523 152.215 198.984 151.699C199.469 150.934 200.637 150.551 202.488 150.551ZM208.371 163.922C208.441 164.516 208.594 164.938 208.828 165.188C209.242 165.633 210.008 165.855 211.125 165.855C211.781 165.855 212.301 165.758 212.684 165.562C213.074 165.367 213.27 165.074 213.27 164.684C213.27 164.309 213.113 164.023 212.801 163.828C212.488 163.633 211.328 163.297 209.32 162.82C207.875 162.461 206.855 162.012 206.262 161.473C205.668 160.941 205.371 160.176 205.371 159.176C205.371 157.996 205.832 156.984 206.754 156.141C207.684 155.289 208.988 154.863 210.668 154.863C212.262 154.863 213.559 155.184 214.559 155.824C215.566 156.457 216.145 157.555 216.293 159.117H212.953C212.906 158.688 212.785 158.348 212.59 158.098C212.223 157.645 211.598 157.418 210.715 157.418C209.988 157.418 209.469 157.531 209.156 157.758C208.852 157.984 208.699 158.25 208.699 158.555C208.699 158.938 208.863 159.215 209.191 159.387C209.52 159.566 210.68 159.875 212.672 160.312C214 160.625 214.996 161.098 215.66 161.73C216.316 162.371 216.645 163.172 216.645 164.133C216.645 165.398 216.172 166.434 215.227 167.238C214.289 168.035 212.836 168.434 210.867 168.434C208.859 168.434 207.375 168.012 206.414 167.168C205.461 166.316 204.984 165.234 204.984 163.922H208.371Z" fill="white"/>
<path d="M96.918 230.906H93.7148V237H88.2656V230.906H77.0547V226.043L87.4648 208.855H93.7148V226.551H96.918V230.906ZM88.2656 226.551V214.324L81.1758 226.551H88.2656ZM99.5156 237C99.5677 234.969 100.004 233.113 100.824 231.434C101.618 229.546 103.493 227.547 106.449 225.438C109.014 223.602 110.674 222.286 111.43 221.492C112.589 220.255 113.168 218.901 113.168 217.43C113.168 216.232 112.836 215.236 112.172 214.441C111.508 213.647 110.557 213.25 109.32 213.25C107.628 213.25 106.475 213.882 105.863 215.145C105.512 215.874 105.303 217.033 105.238 218.621H99.8281C99.9193 216.212 100.355 214.266 101.137 212.781C102.621 209.956 105.258 208.543 109.047 208.543C112.042 208.543 114.424 209.376 116.195 211.043C117.966 212.697 118.852 214.891 118.852 217.625C118.852 219.721 118.227 221.583 116.977 223.211C116.156 224.292 114.809 225.496 112.934 226.824L110.707 228.406C109.314 229.396 108.357 230.112 107.836 230.555C107.328 230.997 106.898 231.512 106.547 232.098H118.91V237H99.5156ZM127.465 223.113C127.465 226.368 127.732 228.862 128.266 230.594C128.799 232.312 129.893 233.172 131.547 233.172C133.201 233.172 134.281 232.312 134.789 230.594C135.31 228.862 135.57 226.368 135.57 223.113C135.57 219.702 135.31 217.176 134.789 215.535C134.281 213.895 133.201 213.074 131.547 213.074C129.893 213.074 128.799 213.895 128.266 215.535C127.732 217.176 127.465 219.702 127.465 223.113ZM131.547 208.484C135.154 208.484 137.68 209.754 139.125 212.293C140.583 214.832 141.312 218.439 141.312 223.113C141.312 227.788 140.583 231.388 139.125 233.914C137.68 236.44 135.154 237.703 131.547 237.703C127.94 237.703 125.408 236.44 123.949 233.914C122.504 231.388 121.781 227.788 121.781 223.113C121.781 218.439 122.504 214.832 123.949 212.293C125.408 209.754 127.94 208.484 131.547 208.484Z" fill="white"/>
<path d="M162.789 81.4836C159.895 83.506 156.57 84.8207 153.079 85.3223C149.588 85.824 146.028 85.4987 142.685 84.3725C142.382 84.2642 142.058 84.2308 141.739 84.2752C141.421 84.3196 141.118 84.4403 140.856 84.6272L131.858 91.0289L134.173 94.3009L142.337 88.4831C146.153 89.6014 150.169 89.8515 154.093 89.2154C158.017 88.5793 161.75 87.0728 165.02 84.8058C166.199 84.007 167.316 83.1205 168.362 82.1537L165.65 79.2046C164.755 80.0358 163.799 80.7977 162.789 81.4836Z" fill="#FF9F0D"/>
<path d="M142.655 51.5438C139.793 53.3784 137.501 55.9806 136.037 59.0554C134.574 62.1302 133.998 65.5548 134.375 68.9412L109.029 85.2432L83.678 68.9512C84.0632 65.5638 83.4901 62.1359 82.0245 59.0599C80.5589 55.984 78.2598 53.3841 75.3904 51.5579C71.5815 48.9237 66.9498 47.7648 62.3542 48.2959C60.1864 48.5088 58.0923 49.1993 56.2212 50.3181C54.3502 51.437 52.7484 52.9565 51.5302 54.7682C50.3121 56.5799 49.5076 58.6391 49.1743 60.7989C48.841 62.9586 48.987 65.1655 49.6019 67.262C50.8338 71.7341 53.6406 75.6061 57.5016 78.1594C60.2661 80.1479 63.5333 81.3142 66.9283 81.5246C70.3232 81.735 73.7086 80.981 76.696 79.3491L96.3723 93.3661L77.6477 105.413C76.7627 105.977 75.9995 106.714 75.4034 107.58C74.8073 108.445 74.3904 109.422 74.1775 110.452C73.9646 111.483 73.9599 112.545 74.1638 113.577C74.3677 114.609 74.7759 115.59 75.3644 116.461C75.9506 117.33 76.7039 118.073 77.5802 118.645C78.4565 119.218 79.438 119.61 80.467 119.796C81.4961 119.983 82.5521 119.962 83.5728 119.734C84.5936 119.505 85.5586 119.075 86.4112 118.467L109.029 102.374L131.646 118.479C132.5 119.106 133.47 119.553 134.5 119.794C135.53 120.035 136.598 120.065 137.64 119.882C138.681 119.699 139.675 119.307 140.563 118.73C141.45 118.152 142.212 117.401 142.802 116.521C143.393 115.641 143.801 114.65 144.001 113.608C144.201 112.566 144.19 111.494 143.967 110.457C143.745 109.42 143.316 108.438 142.706 107.571C142.097 106.704 141.319 105.969 140.419 105.411L121.673 93.3741L141.363 79.3511C144.35 80.9836 147.735 81.7383 151.13 81.5286C154.525 81.3188 157.793 80.1533 160.558 78.1655C168.775 72.6004 171.458 62.1002 166.534 54.7577C161.609 47.4152 150.89 45.9788 142.655 51.5438ZM84.0959 115.203C83.2416 115.78 82.1963 115.999 81.1833 115.814C80.1702 115.628 79.2695 115.053 78.6734 114.21C78.3849 113.783 78.1848 113.302 78.0849 112.796C77.9851 112.29 77.9875 111.769 78.0921 111.264C78.1967 110.758 78.4014 110.279 78.6939 109.855C78.9864 109.431 79.3609 109.07 79.7951 108.793L99.8872 95.8657L105.564 99.9061L84.0959 115.203ZM139.96 111.265C140.116 112.026 140.041 112.817 139.743 113.535C139.446 114.252 138.94 114.864 138.292 115.289C137.643 115.714 136.883 115.934 136.108 115.919C135.334 115.905 134.581 115.656 133.949 115.207L77.8877 75.2846C77.5458 75.0414 77.1365 74.9121 76.7174 74.915C76.2984 74.9179 75.8908 75.0528 75.5523 75.3007C73.1837 76.8517 70.3988 77.6383 67.5716 77.5547C64.7444 77.4711 62.0105 76.5215 59.737 74.8332C56.678 72.82 54.4503 69.7623 53.4668 66.2269C52.9961 64.6825 52.8756 63.0521 53.114 61.4549C53.3523 59.8577 53.9436 58.3343 54.8444 56.9959C55.7452 55.6576 56.9329 54.5383 58.3205 53.7199C59.7081 52.9016 61.2605 52.4048 62.864 52.266C66.4991 51.8567 70.1588 52.7832 73.165 54.874C75.575 56.3582 77.4746 58.5465 78.609 61.1454C79.7435 63.7442 80.0583 66.6291 79.5112 69.4126C79.4084 69.8207 79.4361 70.2508 79.5904 70.6421C79.7447 71.0335 80.0178 71.3663 80.3709 71.5933L138.262 108.791C138.696 109.068 139.07 109.43 139.362 109.855C139.654 110.28 139.857 110.759 139.96 111.265ZM158.314 74.8292C156.04 76.517 153.305 77.4661 150.478 77.5489C147.65 77.6318 144.865 76.8444 142.497 75.2927C142.158 75.0448 141.751 74.9099 141.332 74.907C140.913 74.9041 140.503 75.0334 140.162 75.2766L118.042 91.0329L112.739 87.6225L137.68 71.5732C138.033 71.3464 138.305 71.0143 138.459 70.6238C138.614 70.2333 138.642 69.804 138.54 69.3966C138.004 66.6125 138.324 63.7307 139.459 61.1339C140.594 58.5371 142.49 56.3482 144.894 54.858C151.292 50.5307 159.518 51.4857 163.215 56.9805C166.912 62.4754 164.71 70.502 158.314 74.8292Z" fill="#FF9F0D"/>
<path d="M70.8938 3.67709L68.6805 0.334839C63.8507 3.5459 60.2286 8.28405 58.3894 13.7968C56.5503 19.3095 56.5996 25.2807 58.5294 30.7621L62.2983 29.422C60.6665 24.7832 60.6262 19.7303 62.1839 15.0658C63.7415 10.4014 66.8079 6.39291 70.8958 3.67709H70.8938Z" fill="#FF9F0D"/>
<path d="M66.5412 36.6482C65.5785 35.5524 64.7253 34.3644 63.994 33.1013L60.533 35.1075C61.3965 36.6008 62.4044 38.0051 63.5421 39.3003L66.5412 36.6482Z" fill="#FF9F0D"/>
<path d="M130.982 68.6102L136.675 40.0546C141.303 39.6506 145.596 37.4664 148.655 33.9591C151.715 30.4518 153.304 25.8932 153.091 21.237C152.877 16.5808 150.877 12.188 147.509 8.97752C144.141 5.76709 139.667 3.98785 135.021 4.01211C130.978 3.99774 127.051 5.36706 123.889 7.89401C122.241 5.46198 120.026 3.47121 117.436 2.09527C114.846 0.719328 111.96 0 109.029 0C106.098 0 103.212 0.719328 100.622 2.09527C98.0319 3.47121 95.8166 5.46198 94.1692 7.89401C91.0065 5.36706 87.0794 3.99774 83.0365 4.01211C78.407 4.01168 73.9554 5.80153 70.6073 9.00953C67.2591 12.2175 65.272 16.5969 65.0591 21.2371C64.8462 25.8772 66.4238 30.4213 69.464 33.9244C72.5042 37.4275 76.773 39.6202 81.383 40.0466L87.0753 68.6102L90.9942 67.8238L89.8745 62.1905H128.183L127.064 67.8077L130.982 68.6102ZM121.331 58.1782L123.005 46.4262L119.046 45.8564L117.292 58.1782H111.028V36.1105H107.029V58.1782H100.765L99.0118 45.8564L95.053 46.4262L96.7265 58.1782H89.0747L84.9959 37.7155C84.9037 37.2623 84.6583 36.8551 84.3013 36.5626C83.9442 36.2701 83.4974 36.1104 83.0365 36.1105C79.3245 36.1105 75.7646 34.631 73.1399 31.9974C70.5151 29.3638 69.0406 25.7919 69.0406 22.0675C69.0406 18.343 70.5151 14.7711 73.1399 12.1375C75.7646 9.50395 79.3245 8.02441 83.0365 8.02441C84.9419 8.01951 86.8278 8.40892 88.5765 9.16832C90.3251 9.92771 91.8989 11.0408 93.1995 12.4379C93.4217 12.6737 93.6977 12.8519 94.0036 12.9572C94.3096 13.0625 94.6364 13.0917 94.9561 13.0424C95.2758 12.9931 95.5788 12.8667 95.8391 12.6741C96.0994 12.4814 96.3092 12.2283 96.4506 11.9364C97.5928 9.56299 99.3788 7.56082 101.604 6.15975C103.829 4.75868 106.402 4.01548 109.029 4.01548C111.656 4.01548 114.229 4.75868 116.454 6.15975C118.679 7.56082 120.465 9.56299 121.607 11.9364C121.749 12.2283 121.958 12.4814 122.219 12.6741C122.479 12.8667 122.782 12.9931 123.102 13.0424C123.421 13.0917 123.748 13.0625 124.054 12.9572C124.36 12.8519 124.636 12.6737 124.858 12.4379C126.159 11.0408 127.733 9.92771 129.481 9.16832C131.23 8.40892 133.116 8.01951 135.021 8.02441C138.733 8.02441 142.293 9.50395 144.918 12.1375C147.543 14.7711 149.017 18.343 149.017 22.0675C149.017 25.7919 147.543 29.3638 144.918 31.9974C142.293 34.631 138.733 36.1105 135.021 36.1105C134.56 36.1104 134.114 36.2701 133.757 36.5626C133.399 36.8551 133.154 37.2623 133.062 37.7155L128.983 58.1782H121.331Z" fill="#FF9F0D"/>
<path d="M1114.8 168V150.727H1118.38V157.312H1125.13V150.727H1128.71V168H1125.13V160.289H1118.38V168H1114.8ZM1138.95 161.789C1138.73 161.922 1138.52 162.031 1138.3 162.117C1138.09 162.195 1137.8 162.27 1137.42 162.34L1136.67 162.48C1135.97 162.605 1135.46 162.758 1135.16 162.938C1134.64 163.242 1134.39 163.715 1134.39 164.355C1134.39 164.926 1134.54 165.34 1134.86 165.598C1135.18 165.848 1135.56 165.973 1136.02 165.973C1136.73 165.973 1137.39 165.762 1138 165.34C1138.61 164.918 1138.92 164.148 1138.95 163.031V161.789ZM1136.92 160.23C1137.54 160.152 1137.98 160.055 1138.24 159.938C1138.72 159.734 1138.96 159.418 1138.96 158.988C1138.96 158.465 1138.77 158.105 1138.41 157.91C1138.05 157.707 1137.52 157.605 1136.81 157.605C1136.02 157.605 1135.46 157.801 1135.14 158.191C1134.9 158.48 1134.75 158.871 1134.67 159.363H1131.45C1131.52 158.246 1131.83 157.328 1132.38 156.609C1133.27 155.484 1134.78 154.922 1136.93 154.922C1138.33 154.922 1139.57 155.199 1140.66 155.754C1141.74 156.309 1142.29 157.355 1142.29 158.895V164.754C1142.29 165.16 1142.29 165.652 1142.31 166.23C1142.33 166.668 1142.4 166.965 1142.51 167.121C1142.62 167.277 1142.78 167.406 1143 167.508V168H1139.37C1139.27 167.742 1139.2 167.5 1139.16 167.273C1139.12 167.047 1139.09 166.789 1139.06 166.5C1138.6 167 1138.07 167.426 1137.47 167.777C1136.75 168.191 1135.94 168.398 1135.03 168.398C1133.87 168.398 1132.92 168.07 1132.16 167.414C1131.41 166.75 1131.04 165.812 1131.04 164.602C1131.04 163.031 1131.64 161.895 1132.85 161.191C1133.52 160.809 1134.49 160.535 1135.78 160.371L1136.92 160.23ZM1154.06 161.613C1154.06 160.629 1153.84 159.758 1153.38 159C1152.94 158.242 1152.21 157.863 1151.2 157.863C1149.99 157.863 1149.16 158.438 1148.71 159.586C1148.47 160.195 1148.36 160.969 1148.36 161.906C1148.36 163.391 1148.75 164.434 1149.54 165.035C1150.01 165.387 1150.56 165.562 1151.2 165.562C1152.13 165.562 1152.84 165.203 1153.32 164.484C1153.82 163.766 1154.06 162.809 1154.06 161.613ZM1152.16 154.945C1153.66 154.945 1154.92 155.496 1155.95 156.598C1156.99 157.699 1157.51 159.316 1157.51 161.449C1157.51 163.699 1157 165.414 1155.98 166.594C1154.98 167.773 1153.68 168.363 1152.08 168.363C1151.07 168.363 1150.22 168.109 1149.55 167.602C1149.18 167.32 1148.82 166.91 1148.47 166.371V173.027H1145.17V155.227H1148.37V157.113C1148.73 156.559 1149.11 156.121 1149.52 155.801C1150.26 155.23 1151.14 154.945 1152.16 154.945ZM1168.73 161.613C1168.73 160.629 1168.51 159.758 1168.05 159C1167.61 158.242 1166.88 157.863 1165.87 157.863C1164.66 157.863 1163.83 158.438 1163.38 159.586C1163.14 160.195 1163.03 160.969 1163.03 161.906C1163.03 163.391 1163.42 164.434 1164.21 165.035C1164.68 165.387 1165.23 165.562 1165.87 165.562C1166.8 165.562 1167.51 165.203 1168 164.484C1168.49 163.766 1168.73 162.809 1168.73 161.613ZM1166.84 154.945C1168.33 154.945 1169.59 155.496 1170.62 156.598C1171.66 157.699 1172.18 159.316 1172.18 161.449C1172.18 163.699 1171.67 165.414 1170.66 166.594C1169.65 167.773 1168.35 168.363 1166.75 168.363C1165.74 168.363 1164.89 168.109 1164.22 167.602C1163.86 167.32 1163.5 166.91 1163.14 166.371V173.027H1159.84V155.227H1163.04V157.113C1163.4 156.559 1163.78 156.121 1164.19 155.801C1164.93 155.23 1165.81 154.945 1166.84 154.945ZM1175.12 170.449L1175.54 170.473C1175.87 170.488 1176.18 170.477 1176.48 170.438C1176.78 170.398 1177.03 170.309 1177.23 170.168C1177.43 170.035 1177.61 169.758 1177.77 169.336C1177.94 168.914 1178.01 168.656 1177.98 168.562L1173.29 155.227H1177.01L1179.8 164.648L1182.43 155.227H1185.98L1181.6 167.789C1180.76 170.211 1180.09 171.711 1179.6 172.289C1179.11 172.875 1178.12 173.168 1176.64 173.168C1176.35 173.168 1176.11 173.164 1175.93 173.156C1175.75 173.156 1175.48 173.145 1175.12 173.121V170.449ZM1194.16 159.504C1194.16 156.488 1194.97 154.164 1196.59 152.531C1198 151.109 1199.79 150.398 1201.96 150.398C1204.86 150.398 1206.99 151.352 1208.33 153.258C1209.07 154.328 1209.47 155.402 1209.53 156.48H1205.92C1205.68 155.652 1205.38 155.027 1205.02 154.605C1204.36 153.855 1203.39 153.48 1202.1 153.48C1200.79 153.48 1199.75 154.012 1198.99 155.074C1198.23 156.129 1197.86 157.625 1197.86 159.562C1197.86 161.5 1198.25 162.953 1199.05 163.922C1199.86 164.883 1200.87 165.363 1202.11 165.363C1203.37 165.363 1204.34 164.949 1205 164.121C1205.37 163.676 1205.68 163.008 1205.92 162.117H1209.49C1209.18 164 1208.38 165.531 1207.09 166.711C1205.81 167.891 1204.16 168.48 1202.16 168.48C1199.67 168.48 1197.72 167.684 1196.3 166.09C1194.87 164.488 1194.16 162.293 1194.16 159.504ZM1215.32 155.227V162.926C1215.32 163.652 1215.4 164.199 1215.57 164.566C1215.88 165.215 1216.48 165.539 1217.37 165.539C1218.51 165.539 1219.29 165.078 1219.71 164.156C1219.93 163.656 1220.04 162.996 1220.04 162.176V155.227H1223.43V168H1220.18V166.195C1220.15 166.234 1220.07 166.352 1219.95 166.547C1219.82 166.742 1219.67 166.914 1219.5 167.062C1218.98 167.531 1218.47 167.852 1217.98 168.023C1217.49 168.195 1216.92 168.281 1216.27 168.281C1214.37 168.281 1213.1 167.602 1212.45 166.242C1212.08 165.492 1211.89 164.387 1211.89 162.926V155.227H1215.32ZM1229.26 163.922C1229.33 164.516 1229.48 164.938 1229.72 165.188C1230.13 165.633 1230.9 165.855 1232.02 165.855C1232.67 165.855 1233.19 165.758 1233.57 165.562C1233.96 165.367 1234.16 165.074 1234.16 164.684C1234.16 164.309 1234 164.023 1233.69 163.828C1233.38 163.633 1232.22 163.297 1230.21 162.82C1228.77 162.461 1227.75 162.012 1227.15 161.473C1226.56 160.941 1226.26 160.176 1226.26 159.176C1226.26 157.996 1226.72 156.984 1227.64 156.141C1228.57 155.289 1229.88 154.863 1231.56 154.863C1233.15 154.863 1234.45 155.184 1235.45 155.824C1236.46 156.457 1237.04 157.555 1237.18 159.117H1233.84C1233.8 158.688 1233.68 158.348 1233.48 158.098C1233.11 157.645 1232.49 157.418 1231.61 157.418C1230.88 157.418 1230.36 157.531 1230.05 157.758C1229.74 157.984 1229.59 158.25 1229.59 158.555C1229.59 158.938 1229.75 159.215 1230.08 159.387C1230.41 159.566 1231.57 159.875 1233.56 160.312C1234.89 160.625 1235.89 161.098 1236.55 161.73C1237.21 162.371 1237.54 163.172 1237.54 164.133C1237.54 165.398 1237.06 166.434 1236.12 167.238C1235.18 168.035 1233.73 168.434 1231.76 168.434C1229.75 168.434 1228.27 168.012 1227.3 167.168C1226.35 166.316 1225.87 165.234 1225.87 163.922H1229.26ZM1238.71 157.723V155.344H1240.49V151.781H1243.79V155.344H1245.87V157.723H1243.79V164.473C1243.79 164.996 1243.86 165.324 1243.99 165.457C1244.12 165.582 1244.53 165.645 1245.21 165.645C1245.31 165.645 1245.42 165.645 1245.53 165.645C1245.64 165.637 1245.76 165.629 1245.87 165.621V168.117L1244.29 168.176C1242.71 168.23 1241.63 167.957 1241.05 167.355C1240.68 166.973 1240.49 166.383 1240.49 165.586V157.723H1238.71ZM1253.74 165.645C1254.72 165.645 1255.47 165.297 1255.99 164.602C1256.52 163.906 1256.78 162.918 1256.78 161.637C1256.78 160.355 1256.52 159.371 1255.99 158.684C1255.47 157.988 1254.72 157.641 1253.74 157.641C1252.77 157.641 1252.01 157.988 1251.48 158.684C1250.96 159.371 1250.7 160.355 1250.7 161.637C1250.7 162.918 1250.96 163.906 1251.48 164.602C1252.01 165.297 1252.77 165.645 1253.74 165.645ZM1260.28 161.637C1260.28 163.512 1259.74 165.117 1258.66 166.453C1257.59 167.781 1255.95 168.445 1253.75 168.445C1251.56 168.445 1249.92 167.781 1248.84 166.453C1247.77 165.117 1247.23 163.512 1247.23 161.637C1247.23 159.793 1247.77 158.195 1248.84 156.844C1249.92 155.492 1251.56 154.816 1253.75 154.816C1255.95 154.816 1257.59 155.492 1258.66 156.844C1259.74 158.195 1260.28 159.793 1260.28 161.637ZM1276.96 154.945C1277.52 154.945 1278.07 155.055 1278.62 155.273C1279.17 155.492 1279.66 155.875 1280.11 156.422C1280.47 156.867 1280.71 157.414 1280.84 158.062C1280.91 158.492 1280.95 159.121 1280.95 159.949L1280.93 168H1277.51V159.867C1277.51 159.383 1277.43 158.984 1277.27 158.672C1276.98 158.078 1276.43 157.781 1275.63 157.781C1274.71 157.781 1274.07 158.164 1273.72 158.93C1273.54 159.336 1273.45 159.824 1273.45 160.395V168H1270.09V160.395C1270.09 159.637 1270.01 159.086 1269.86 158.742C1269.57 158.125 1269.02 157.816 1268.2 157.816C1267.25 157.816 1266.61 158.125 1266.28 158.742C1266.1 159.094 1266.01 159.617 1266.01 160.312V168H1262.62V155.25H1265.87V157.113C1266.29 156.449 1266.68 155.977 1267.04 155.695C1267.69 155.195 1268.53 154.945 1269.56 154.945C1270.54 154.945 1271.33 155.16 1271.93 155.59C1272.41 155.988 1272.78 156.5 1273.03 157.125C1273.47 156.375 1274.01 155.824 1274.66 155.473C1275.35 155.121 1276.11 154.945 1276.96 154.945ZM1289.07 157.641C1288.3 157.641 1287.7 157.883 1287.27 158.367C1286.85 158.852 1286.58 159.508 1286.47 160.336H1291.66C1291.61 159.453 1291.34 158.785 1290.86 158.332C1290.38 157.871 1289.79 157.641 1289.07 157.641ZM1289.07 154.887C1290.14 154.887 1291.09 155.086 1291.95 155.484C1292.8 155.883 1293.5 156.512 1294.05 157.371C1294.55 158.129 1294.88 159.008 1295.03 160.008C1295.11 160.594 1295.15 161.438 1295.13 162.539H1286.39C1286.44 163.82 1286.84 164.719 1287.6 165.234C1288.06 165.555 1288.61 165.715 1289.26 165.715C1289.95 165.715 1290.51 165.52 1290.94 165.129C1291.17 164.918 1291.38 164.625 1291.56 164.25H1294.97C1294.88 165.008 1294.49 165.777 1293.79 166.559C1292.69 167.801 1291.16 168.422 1289.19 168.422C1287.57 168.422 1286.13 167.898 1284.89 166.852C1283.65 165.805 1283.03 164.102 1283.03 161.742C1283.03 159.531 1283.59 157.836 1284.7 156.656C1285.83 155.477 1287.29 154.887 1289.07 154.887ZM1304.33 154.922C1304.39 154.922 1304.45 154.926 1304.48 154.934C1304.53 154.934 1304.63 154.938 1304.78 154.945V158.367C1304.57 158.344 1304.38 158.328 1304.21 158.32C1304.05 158.312 1303.92 158.309 1303.82 158.309C1302.47 158.309 1301.57 158.746 1301.11 159.621C1300.85 160.113 1300.72 160.871 1300.72 161.895V168H1297.36V155.227H1300.55V157.453C1301.06 156.602 1301.51 156.02 1301.89 155.707C1302.52 155.184 1303.33 154.922 1304.33 154.922ZM1309.35 163.922C1309.42 164.516 1309.57 164.938 1309.8 165.188C1310.22 165.633 1310.98 165.855 1312.1 165.855C1312.76 165.855 1313.28 165.758 1313.66 165.562C1314.05 165.367 1314.25 165.074 1314.25 164.684C1314.25 164.309 1314.09 164.023 1313.78 163.828C1313.46 163.633 1312.3 163.297 1310.3 162.82C1308.85 162.461 1307.83 162.012 1307.24 161.473C1306.64 160.941 1306.35 160.176 1306.35 159.176C1306.35 157.996 1306.81 156.984 1307.73 156.141C1308.66 155.289 1309.96 154.863 1311.64 154.863C1313.24 154.863 1314.54 155.184 1315.54 155.824C1316.54 156.457 1317.12 157.555 1317.27 159.117H1313.93C1313.88 158.688 1313.76 158.348 1313.57 158.098C1313.2 157.645 1312.57 157.418 1311.69 157.418C1310.96 157.418 1310.45 157.531 1310.13 157.758C1309.83 157.984 1309.68 158.25 1309.68 158.555C1309.68 158.938 1309.84 159.215 1310.17 159.387C1310.5 159.566 1311.66 159.875 1313.65 160.312C1314.98 160.625 1315.97 161.098 1316.64 161.73C1317.29 162.371 1317.62 163.172 1317.62 164.133C1317.62 165.398 1317.15 166.434 1316.2 167.238C1315.27 168.035 1313.81 168.434 1311.84 168.434C1309.84 168.434 1308.35 168.012 1307.39 167.168C1306.44 166.316 1305.96 165.234 1305.96 163.922H1309.35Z" fill="white"/>
<path d="M1184.25 237C1184.3 234.969 1184.74 233.113 1185.56 231.434C1186.35 229.546 1188.23 227.547 1191.18 225.438C1193.75 223.602 1195.41 222.286 1196.16 221.492C1197.32 220.255 1197.9 218.901 1197.9 217.43C1197.9 216.232 1197.57 215.236 1196.91 214.441C1196.24 213.647 1195.29 213.25 1194.05 213.25C1192.36 213.25 1191.21 213.882 1190.6 215.145C1190.25 215.874 1190.04 217.033 1189.97 218.621H1184.56C1184.65 216.212 1185.09 214.266 1185.87 212.781C1187.36 209.956 1189.99 208.543 1193.78 208.543C1196.78 208.543 1199.16 209.376 1200.93 211.043C1202.7 212.697 1203.59 214.891 1203.59 217.625C1203.59 219.721 1202.96 221.583 1201.71 223.211C1200.89 224.292 1199.54 225.496 1197.67 226.824L1195.44 228.406C1194.05 229.396 1193.09 230.112 1192.57 230.555C1192.06 230.997 1191.63 231.512 1191.28 232.098H1203.64V237H1184.25ZM1206.52 237C1206.57 234.969 1207 233.113 1207.82 231.434C1208.62 229.546 1210.49 227.547 1213.45 225.438C1216.01 223.602 1217.67 222.286 1218.43 221.492C1219.59 220.255 1220.17 218.901 1220.17 217.43C1220.17 216.232 1219.84 215.236 1219.17 214.441C1218.51 213.647 1217.56 213.25 1216.32 213.25C1214.63 213.25 1213.48 213.882 1212.86 215.145C1212.51 215.874 1212.3 217.033 1212.24 218.621H1206.83C1206.92 216.212 1207.36 214.266 1208.14 212.781C1209.62 209.956 1212.26 208.543 1216.05 208.543C1219.04 208.543 1221.42 209.376 1223.2 211.043C1224.97 212.697 1225.85 214.891 1225.85 217.625C1225.85 219.721 1225.23 221.583 1223.98 223.211C1223.16 224.292 1221.81 225.496 1219.93 226.824L1217.71 228.406C1216.31 229.396 1215.36 230.112 1214.84 230.555C1214.33 230.997 1213.9 231.512 1213.55 232.098H1225.91V237H1206.52ZM1234.46 223.113C1234.46 226.368 1234.73 228.862 1235.27 230.594C1235.8 232.312 1236.89 233.172 1238.55 233.172C1240.2 233.172 1241.28 232.312 1241.79 230.594C1242.31 228.862 1242.57 226.368 1242.57 223.113C1242.57 219.702 1242.31 217.176 1241.79 215.535C1241.28 213.895 1240.2 213.074 1238.55 213.074C1236.89 213.074 1235.8 213.895 1235.27 215.535C1234.73 217.176 1234.46 219.702 1234.46 223.113ZM1238.55 208.484C1242.15 208.484 1244.68 209.754 1246.12 212.293C1247.58 214.832 1248.31 218.439 1248.31 223.113C1248.31 227.788 1247.58 231.388 1246.12 233.914C1244.68 236.44 1242.15 237.703 1238.55 237.703C1234.94 237.703 1232.41 236.44 1230.95 233.914C1229.5 231.388 1228.78 227.788 1228.78 223.113C1228.78 218.439 1229.5 214.832 1230.95 212.293C1232.41 209.754 1234.94 208.484 1238.55 208.484Z" fill="white"/>
<path d="M1275.3 0.676178C1274.66 0.0443041 1273.72 -0.166633 1272.87 0.136648L1175.52 34.8468C1172.14 32.7787 1167.85 32.2945 1163.91 33.9236C1157.38 36.629 1154.27 44.1433 1156.98 50.6746C1163.36 66.0749 1172.57 79.8601 1184.35 91.647C1196.14 103.434 1209.93 112.645 1225.33 119.024C1226.93 119.686 1228.58 120 1230.21 120C1235.25 120 1240.03 117.017 1242.08 112.085C1243.45 108.767 1243.32 105.196 1242.01 102.129L1275.87 3.10266C1276.16 2.25141 1275.94 1.30829 1275.3 0.676178ZM1190.26 34.5677L1200.58 30.8894C1201.79 32.1799 1202.38 33.9564 1202.14 35.7531C1201.93 37.3352 1201.12 38.7416 1199.86 39.7131C1198.59 40.6846 1197.02 41.1044 1195.44 40.8965C1193.86 40.6881 1192.45 39.8765 1191.48 38.6104C1190.59 37.4439 1190.16 36.0208 1190.26 34.5677ZM1237.75 110.291C1236.03 114.435 1231.26 116.409 1227.12 114.693C1197.11 102.263 1173.74 78.8898 1161.31 48.8805C1160.48 46.8735 1160.48 44.6631 1161.31 42.6559C1162.14 40.649 1163.7 39.0859 1165.71 38.2546C1167.72 37.4233 1169.93 37.4233 1171.93 38.2546C1173.94 39.0859 1175.5 40.649 1176.33 42.6559C1181.65 55.5013 1189.34 66.9992 1199.17 76.8308C1209 86.6623 1220.5 94.3449 1233.34 99.6657C1237.49 101.382 1239.46 106.148 1237.75 110.291ZM1258.57 39.2177C1258.36 39.2125 1258.14 39.2003 1257.93 39.1727C1256.35 38.9643 1254.94 38.1524 1253.97 36.8866C1253 35.6207 1252.58 34.052 1252.79 32.4703C1253.22 29.2045 1256.22 26.8978 1259.49 27.3271C1260.5 27.4598 1261.45 27.8507 1262.25 28.4453L1258.57 39.2177ZM1263.81 23.8882C1262.67 23.2664 1261.41 22.8522 1260.1 22.6797C1254.27 21.9103 1248.91 26.0299 1248.14 31.8585C1247.77 34.6818 1248.52 37.4809 1250.25 39.7403C1251.92 41.9165 1254.31 43.3382 1257.01 43.7718L1252.35 57.3934L1247 53.2825C1245.97 52.495 1244.5 52.6881 1243.71 53.7151C1242.92 54.7422 1243.11 56.2133 1244.14 57.0013L1250.75 62.0736L1238.64 97.5005C1237.62 96.6169 1236.45 95.8777 1235.14 95.3347C1210.3 85.0458 1190.95 65.7006 1180.67 40.862C1180.31 39.9981 1179.86 39.1961 1179.35 38.4574L1185.63 36.2195C1185.85 38.1105 1186.57 39.9142 1187.76 41.4637C1189.5 43.723 1192.01 45.1719 1194.83 45.5434C1195.3 45.6058 1195.77 45.6367 1196.24 45.6367C1198.57 45.6367 1200.83 44.875 1202.71 43.4319C1204.97 41.698 1206.42 39.1886 1206.79 36.3649C1207.12 33.8301 1206.53 31.3195 1205.2 29.2396L1234.34 18.8517L1235.44 21.5175C1235.82 22.42 1236.69 22.965 1237.61 22.965C1237.91 22.965 1238.21 22.9073 1238.51 22.7859C1239.7 22.2907 1240.27 20.9193 1239.77 19.7236L1238.76 17.2755L1269.87 6.18445L1263.81 23.8882Z" fill="#FF9F0D"/>
<path d="M1181.68 63.1682C1181.68 63.1571 1181.66 63.1272 1181.65 63.1164C1180.93 62.0349 1179.47 61.7446 1178.39 62.4648C1177.31 63.1839 1177.01 64.6436 1177.73 65.7255C1178.18 66.4182 1178.93 66.7961 1179.7 66.7961C1180.14 66.7961 1180.58 66.6751 1180.97 66.422C1182.07 65.7187 1182.39 64.2619 1181.68 63.1682Z" fill="#FF9F0D"/>
<path d="M1178.1 57.3187C1175.81 53.2957 1173.74 49.0852 1171.97 44.8047C1171.47 43.6029 1170.1 43.0331 1168.9 43.5307C1167.69 44.0282 1167.12 45.4056 1167.62 46.6069C1169.47 51.0691 1171.62 55.4581 1174.01 59.6517C1174.45 60.4131 1175.24 60.8403 1176.06 60.8403C1176.45 60.8403 1176.86 60.7404 1177.22 60.5306C1178.35 59.8862 1178.75 58.4482 1178.1 57.3187Z" fill="#FF9F0D"/>
<path d="M1229.93 30.1358C1229.47 30.0741 1228.99 30.043 1228.52 30.043C1223.18 30.043 1218.62 34.047 1217.92 39.3566C1217.15 45.212 1221.28 50.6031 1227.14 51.374C1227.6 51.4357 1228.08 51.4668 1228.55 51.4668C1233.89 51.4668 1238.45 47.4628 1239.15 42.1527C1239.92 36.2975 1235.79 30.9067 1229.93 30.1358ZM1234.48 41.5382C1234.09 44.5137 1231.54 46.7574 1228.55 46.7574C1228.28 46.7574 1228.01 46.7399 1227.75 46.7051C1224.47 46.273 1222.15 43.2523 1222.59 39.9712C1222.98 36.9959 1225.53 34.7524 1228.52 34.7524C1228.79 34.7524 1229.05 34.7699 1229.32 34.8047C1232.6 35.237 1234.92 38.2575 1234.48 41.5382Z" fill="#FF9F0D"/>
<path d="M1229.32 59.4239C1228.85 59.3622 1228.38 59.3311 1227.91 59.3311C1222.56 59.3311 1218 63.3351 1217.3 68.6449C1216.93 71.4815 1217.68 74.2934 1219.42 76.5635C1221.17 78.8333 1223.69 80.2889 1226.52 80.6626C1226.99 80.724 1227.46 80.7549 1227.93 80.7549C1233.28 80.7549 1237.84 76.7509 1238.54 71.4408C1239.31 65.5858 1235.18 60.1952 1229.32 59.4239ZM1233.87 70.8265C1233.48 73.802 1230.93 76.0457 1227.93 76.0457C1227.67 76.0457 1227.4 76.028 1227.14 75.9934C1225.55 75.7839 1224.14 74.9682 1223.16 73.6965C1222.19 72.4248 1221.76 70.8491 1221.97 69.2595C1222.36 66.2842 1224.92 64.0405 1227.91 64.0405C1228.17 64.0405 1228.44 64.0579 1228.71 64.0928C1231.99 64.5249 1234.3 67.5456 1233.87 70.8265Z" fill="#FF9F0D"/>
<path d="M1213.79 49.6693L1206.55 48.7164C1205.27 48.5452 1204.08 49.4541 1203.91 50.7432C1203.74 52.0326 1204.65 53.2153 1205.94 53.3851L1213.18 54.338C1213.28 54.3519 1213.38 54.3584 1213.49 54.3584C1214.65 54.3584 1215.66 53.496 1215.82 52.3111C1215.99 51.022 1215.08 49.839 1213.79 49.6693Z" fill="#FF9F0D"/>
<path d="M1210.12 67.0455L1209.48 62.1893C1209.31 60.9 1208.13 59.992 1206.84 60.1623C1205.55 60.332 1204.64 61.5145 1204.81 62.8039L1205.45 67.66C1205.61 68.8451 1206.62 69.7076 1207.78 69.7076C1207.89 69.7076 1207.99 69.701 1208.09 69.6871C1209.38 69.5173 1210.29 68.3349 1210.12 67.0455Z" fill="#FF9F0D"/>
<path d="M714.684 150.727H718.773L712.996 161.508V168H709.387V161.508L703.41 150.727H707.664L711.25 158.25L714.684 150.727ZM724.293 157.641C723.52 157.641 722.918 157.883 722.488 158.367C722.066 158.852 721.801 159.508 721.691 160.336H726.883C726.828 159.453 726.559 158.785 726.074 158.332C725.598 157.871 725.004 157.641 724.293 157.641ZM724.293 154.887C725.355 154.887 726.312 155.086 727.164 155.484C728.016 155.883 728.719 156.512 729.273 157.371C729.773 158.129 730.098 159.008 730.246 160.008C730.332 160.594 730.367 161.438 730.352 162.539H721.609C721.656 163.82 722.059 164.719 722.816 165.234C723.277 165.555 723.832 165.715 724.48 165.715C725.168 165.715 725.727 165.52 726.156 165.129C726.391 164.918 726.598 164.625 726.777 164.25H730.188C730.102 165.008 729.707 165.777 729.004 166.559C727.91 167.801 726.379 168.422 724.41 168.422C722.785 168.422 721.352 167.898 720.109 166.852C718.867 165.805 718.246 164.102 718.246 161.742C718.246 159.531 718.805 157.836 719.922 156.656C721.047 155.477 722.504 154.887 724.293 154.887ZM739.656 161.789C739.445 161.922 739.23 162.031 739.012 162.117C738.801 162.195 738.508 162.27 738.133 162.34L737.383 162.48C736.68 162.605 736.176 162.758 735.871 162.938C735.355 163.242 735.098 163.715 735.098 164.355C735.098 164.926 735.254 165.34 735.566 165.598C735.887 165.848 736.273 165.973 736.727 165.973C737.445 165.973 738.105 165.762 738.707 165.34C739.316 164.918 739.633 164.148 739.656 163.031V161.789ZM737.629 160.23C738.246 160.152 738.688 160.055 738.953 159.938C739.43 159.734 739.668 159.418 739.668 158.988C739.668 158.465 739.484 158.105 739.117 157.91C738.758 157.707 738.227 157.605 737.523 157.605C736.734 157.605 736.176 157.801 735.848 158.191C735.613 158.48 735.457 158.871 735.379 159.363H732.156C732.227 158.246 732.539 157.328 733.094 156.609C733.977 155.484 735.492 154.922 737.641 154.922C739.039 154.922 740.281 155.199 741.367 155.754C742.453 156.309 742.996 157.355 742.996 158.895V164.754C742.996 165.16 743.004 165.652 743.02 166.23C743.043 166.668 743.109 166.965 743.219 167.121C743.328 167.277 743.492 167.406 743.711 167.508V168H740.078C739.977 167.742 739.906 167.5 739.867 167.273C739.828 167.047 739.797 166.789 739.773 166.5C739.312 167 738.781 167.426 738.18 167.777C737.461 168.191 736.648 168.398 735.742 168.398C734.586 168.398 733.629 168.07 732.871 167.414C732.121 166.75 731.746 165.812 731.746 164.602C731.746 163.031 732.352 161.895 733.562 161.191C734.227 160.809 735.203 160.535 736.492 160.371L737.629 160.23ZM752.91 154.922C752.973 154.922 753.023 154.926 753.062 154.934C753.109 154.934 753.207 154.938 753.355 154.945V158.367C753.145 158.344 752.957 158.328 752.793 158.32C752.629 158.312 752.496 158.309 752.395 158.309C751.051 158.309 750.148 158.746 749.688 159.621C749.43 160.113 749.301 160.871 749.301 161.895V168H745.938V155.227H749.125V157.453C749.641 156.602 750.09 156.02 750.473 155.707C751.098 155.184 751.91 154.922 752.91 154.922ZM757.926 163.922C757.996 164.516 758.148 164.938 758.383 165.188C758.797 165.633 759.562 165.855 760.68 165.855C761.336 165.855 761.855 165.758 762.238 165.562C762.629 165.367 762.824 165.074 762.824 164.684C762.824 164.309 762.668 164.023 762.355 163.828C762.043 163.633 760.883 163.297 758.875 162.82C757.43 162.461 756.41 162.012 755.816 161.473C755.223 160.941 754.926 160.176 754.926 159.176C754.926 157.996 755.387 156.984 756.309 156.141C757.238 155.289 758.543 154.863 760.223 154.863C761.816 154.863 763.113 155.184 764.113 155.824C765.121 156.457 765.699 157.555 765.848 159.117H762.508C762.461 158.688 762.34 158.348 762.145 158.098C761.777 157.645 761.152 157.418 760.27 157.418C759.543 157.418 759.023 157.531 758.711 157.758C758.406 157.984 758.254 158.25 758.254 158.555C758.254 158.938 758.418 159.215 758.746 159.387C759.074 159.566 760.234 159.875 762.227 160.312C763.555 160.625 764.551 161.098 765.215 161.73C765.871 162.371 766.199 163.172 766.199 164.133C766.199 165.398 765.727 166.434 764.781 167.238C763.844 168.035 762.391 168.434 760.422 168.434C758.414 168.434 756.93 168.012 755.969 167.168C755.016 166.316 754.539 165.234 754.539 163.922H757.926ZM783.273 165.422C784.703 165.422 785.836 164.895 786.672 163.84C787.516 162.785 787.938 161.285 787.938 159.34C787.938 157.402 787.516 155.906 786.672 154.852C785.836 153.789 784.703 153.258 783.273 153.258C781.844 153.258 780.703 153.785 779.852 154.84C779 155.895 778.574 157.395 778.574 159.34C778.574 161.285 779 162.785 779.852 163.84C780.703 164.895 781.844 165.422 783.273 165.422ZM791.547 159.34C791.547 162.441 790.676 164.816 788.934 166.465C787.629 167.809 785.742 168.48 783.273 168.48C780.805 168.48 778.918 167.809 777.613 166.465C775.863 164.816 774.988 162.441 774.988 159.34C774.988 156.176 775.863 153.801 777.613 152.215C778.918 150.871 780.805 150.199 783.273 150.199C785.742 150.199 787.629 150.871 788.934 152.215C790.676 153.801 791.547 156.176 791.547 159.34ZM798.754 150.551C798.965 150.551 799.156 150.559 799.328 150.574C799.5 150.582 799.734 150.598 800.031 150.621V153.34C799.844 153.316 799.527 153.301 799.082 153.293C798.645 153.277 798.34 153.375 798.168 153.586C798.004 153.789 797.922 154.016 797.922 154.266C797.922 154.516 797.922 154.875 797.922 155.344H800.113V157.699H797.922V168H794.594V157.699H792.73V155.344H794.559V154.523C794.559 153.156 794.789 152.215 795.25 151.699C795.734 150.934 796.902 150.551 798.754 150.551ZM821.758 153.785H812.617V157.453H821.008V160.453H812.617V164.895H822.18V168H809.09V150.727H821.758V153.785ZM823.469 168L827.828 161.531L823.656 155.25H827.746L829.879 158.953L831.965 155.25H835.938L831.742 161.473L836.102 168H831.941L829.738 164.168L827.523 168H823.469ZM846.883 161.613C846.883 160.629 846.656 159.758 846.203 159C845.758 158.242 845.031 157.863 844.023 157.863C842.812 157.863 841.98 158.438 841.527 159.586C841.293 160.195 841.176 160.969 841.176 161.906C841.176 163.391 841.57 164.434 842.359 165.035C842.828 165.387 843.383 165.562 844.023 165.562C844.953 165.562 845.66 165.203 846.145 164.484C846.637 163.766 846.883 162.809 846.883 161.613ZM844.984 154.945C846.477 154.945 847.738 155.496 848.77 156.598C849.809 157.699 850.328 159.316 850.328 161.449C850.328 163.699 849.82 165.414 848.805 166.594C847.797 167.773 846.496 168.363 844.902 168.363C843.887 168.363 843.043 168.109 842.371 167.602C842.004 167.32 841.645 166.91 841.293 166.371V173.027H837.988V155.227H841.188V157.113C841.547 156.559 841.93 156.121 842.336 155.801C843.078 155.23 843.961 154.945 844.984 154.945ZM857.793 157.641C857.02 157.641 856.418 157.883 855.988 158.367C855.566 158.852 855.301 159.508 855.191 160.336H860.383C860.328 159.453 860.059 158.785 859.574 158.332C859.098 157.871 858.504 157.641 857.793 157.641ZM857.793 154.887C858.855 154.887 859.812 155.086 860.664 155.484C861.516 155.883 862.219 156.512 862.773 157.371C863.273 158.129 863.598 159.008 863.746 160.008C863.832 160.594 863.867 161.438 863.852 162.539H855.109C855.156 163.82 855.559 164.719 856.316 165.234C856.777 165.555 857.332 165.715 857.98 165.715C858.668 165.715 859.227 165.52 859.656 165.129C859.891 164.918 860.098 164.625 860.277 164.25H863.688C863.602 165.008 863.207 165.777 862.504 166.559C861.41 167.801 859.879 168.422 857.91 168.422C856.285 168.422 854.852 167.898 853.609 166.852C852.367 165.805 851.746 164.102 851.746 161.742C851.746 159.531 852.305 157.836 853.422 156.656C854.547 155.477 856.004 154.887 857.793 154.887ZM873.051 154.922C873.113 154.922 873.164 154.926 873.203 154.934C873.25 154.934 873.348 154.938 873.496 154.945V158.367C873.285 158.344 873.098 158.328 872.934 158.32C872.77 158.312 872.637 158.309 872.535 158.309C871.191 158.309 870.289 158.746 869.828 159.621C869.57 160.113 869.441 160.871 869.441 161.895V168H866.078V155.227H869.266V157.453C869.781 156.602 870.23 156.02 870.613 155.707C871.238 155.184 872.051 154.922 873.051 154.922ZM878.898 153.703H875.512V150.621H878.898V153.703ZM875.512 155.227H878.898V168H875.512V155.227ZM887.184 157.641C886.41 157.641 885.809 157.883 885.379 158.367C884.957 158.852 884.691 159.508 884.582 160.336H889.773C889.719 159.453 889.449 158.785 888.965 158.332C888.488 157.871 887.895 157.641 887.184 157.641ZM887.184 154.887C888.246 154.887 889.203 155.086 890.055 155.484C890.906 155.883 891.609 156.512 892.164 157.371C892.664 158.129 892.988 159.008 893.137 160.008C893.223 160.594 893.258 161.438 893.242 162.539H884.5C884.547 163.82 884.949 164.719 885.707 165.234C886.168 165.555 886.723 165.715 887.371 165.715C888.059 165.715 888.617 165.52 889.047 165.129C889.281 164.918 889.488 164.625 889.668 164.25H893.078C892.992 165.008 892.598 165.777 891.895 166.559C890.801 167.801 889.27 168.422 887.301 168.422C885.676 168.422 884.242 167.898 883 166.852C881.758 165.805 881.137 164.102 881.137 161.742C881.137 159.531 881.695 157.836 882.812 156.656C883.938 155.477 885.395 154.887 887.184 154.887ZM902.582 154.922C903.902 154.922 904.98 155.27 905.816 155.965C906.66 156.652 907.082 157.797 907.082 159.398V168H903.66V160.23C903.66 159.559 903.57 159.043 903.391 158.684C903.062 158.027 902.438 157.699 901.516 157.699C900.383 157.699 899.605 158.18 899.184 159.141C898.965 159.648 898.855 160.297 898.855 161.086V168H895.527V155.25H898.75V157.113C899.18 156.457 899.586 155.984 899.969 155.695C900.656 155.18 901.527 154.922 902.582 154.922ZM917.805 159.809C917.742 159.332 917.582 158.902 917.324 158.52C916.949 158.004 916.367 157.746 915.578 157.746C914.453 157.746 913.684 158.305 913.27 159.422C913.051 160.016 912.941 160.805 912.941 161.789C912.941 162.727 913.051 163.48 913.27 164.051C913.668 165.113 914.418 165.645 915.52 165.645C916.301 165.645 916.855 165.434 917.184 165.012C917.512 164.59 917.711 164.043 917.781 163.371H921.191C921.113 164.387 920.746 165.348 920.09 166.254C919.043 167.715 917.492 168.445 915.438 168.445C913.383 168.445 911.871 167.836 910.902 166.617C909.934 165.398 909.449 163.816 909.449 161.871C909.449 159.676 909.984 157.969 911.055 156.75C912.125 155.531 913.602 154.922 915.484 154.922C917.086 154.922 918.395 155.281 919.41 156C920.434 156.719 921.039 157.988 921.227 159.809H917.805ZM928.574 157.641C927.801 157.641 927.199 157.883 926.77 158.367C926.348 158.852 926.082 159.508 925.973 160.336H931.164C931.109 159.453 930.84 158.785 930.355 158.332C929.879 157.871 929.285 157.641 928.574 157.641ZM928.574 154.887C929.637 154.887 930.594 155.086 931.445 155.484C932.297 155.883 933 156.512 933.555 157.371C934.055 158.129 934.379 159.008 934.527 160.008C934.613 160.594 934.648 161.438 934.633 162.539H925.891C925.938 163.82 926.34 164.719 927.098 165.234C927.559 165.555 928.113 165.715 928.762 165.715C929.449 165.715 930.008 165.52 930.438 165.129C930.672 164.918 930.879 164.625 931.059 164.25H934.469C934.383 165.008 933.988 165.777 933.285 166.559C932.191 167.801 930.66 168.422 928.691 168.422C927.066 168.422 925.633 167.898 924.391 166.852C923.148 165.805 922.527 164.102 922.527 161.742C922.527 159.531 923.086 157.836 924.203 156.656C925.328 155.477 926.785 154.887 928.574 154.887ZM941.605 154.922C942.379 154.922 943.066 155.094 943.668 155.438C944.27 155.773 944.758 156.242 945.133 156.844V150.75H948.52V168H945.273V166.23C944.797 166.988 944.254 167.539 943.645 167.883C943.035 168.227 942.277 168.398 941.371 168.398C939.879 168.398 938.621 167.797 937.598 166.594C936.582 165.383 936.074 163.832 936.074 161.941C936.074 159.762 936.574 158.047 937.574 156.797C938.582 155.547 939.926 154.922 941.605 154.922ZM942.332 165.586C943.277 165.586 943.996 165.234 944.488 164.531C944.98 163.828 945.227 162.918 945.227 161.801C945.227 160.238 944.832 159.121 944.043 158.449C943.559 158.043 942.996 157.84 942.355 157.84C941.379 157.84 940.66 158.211 940.199 158.953C939.746 159.688 939.52 160.602 939.52 161.695C939.52 162.875 939.75 163.82 940.211 164.531C940.68 165.234 941.387 165.586 942.332 165.586Z" fill="white"/>
<path d="M799.523 228.309C799.523 229.441 799.706 230.379 800.07 231.121C800.747 232.488 801.978 233.172 803.762 233.172C804.855 233.172 805.806 232.801 806.613 232.059C807.434 231.303 807.844 230.223 807.844 228.816C807.844 226.954 807.089 225.711 805.578 225.086C804.719 224.734 803.365 224.559 801.516 224.559V220.574C803.326 220.548 804.589 220.372 805.305 220.047C806.542 219.5 807.16 218.393 807.16 216.727C807.16 215.646 806.841 214.767 806.203 214.09C805.578 213.413 804.693 213.074 803.547 213.074C802.232 213.074 801.262 213.491 800.637 214.324C800.025 215.158 799.732 216.271 799.758 217.664H794.562C794.615 216.258 794.855 214.923 795.285 213.66C795.741 212.553 796.457 211.531 797.434 210.594C798.163 209.93 799.029 209.422 800.031 209.07C801.034 208.719 802.264 208.543 803.723 208.543C806.431 208.543 808.612 209.246 810.266 210.652C811.932 212.046 812.766 213.921 812.766 216.277C812.766 217.944 812.271 219.35 811.281 220.496C810.656 221.212 810.005 221.701 809.328 221.961C809.836 221.961 810.565 222.397 811.516 223.27C812.935 224.585 813.645 226.382 813.645 228.66C813.645 231.056 812.811 233.165 811.145 234.988C809.491 236.798 807.036 237.703 803.781 237.703C799.771 237.703 796.984 236.395 795.422 233.777C794.602 232.384 794.146 230.561 794.055 228.309H799.523ZM822.199 223.113C822.199 226.368 822.466 228.862 823 230.594C823.534 232.312 824.628 233.172 826.281 233.172C827.935 233.172 829.016 232.312 829.523 230.594C830.044 228.862 830.305 226.368 830.305 223.113C830.305 219.702 830.044 217.176 829.523 215.535C829.016 213.895 827.935 213.074 826.281 213.074C824.628 213.074 823.534 213.895 823 215.535C822.466 217.176 822.199 219.702 822.199 223.113ZM826.281 208.484C829.888 208.484 832.414 209.754 833.859 212.293C835.318 214.832 836.047 218.439 836.047 223.113C836.047 227.788 835.318 231.388 833.859 233.914C832.414 236.44 829.888 237.703 826.281 237.703C822.674 237.703 820.142 236.44 818.684 233.914C817.238 231.388 816.516 227.788 816.516 223.113C816.516 218.439 817.238 214.832 818.684 212.293C820.142 209.754 822.674 208.484 826.281 208.484ZM838.957 228.953V223.855H846.965V215.848H852.102V223.855H860.109V228.953H852.102V237H846.965V228.953H838.957Z" fill="white"/>
<path d="M856.201 47.9741L863.251 47.5248C863.263 47.5238 863.276 47.5229 863.289 47.522C868.313 47.0957 872.823 44.4487 875.663 40.2577L881.237 32.0341C886.088 24.8747 887.968 16.2275 886.528 7.68623C886.245 6.00872 885.392 4.46288 884.126 3.33502C882.86 2.20625 881.232 1.53966 879.542 1.45864C870.935 1.04433 862.626 3.95833 856.141 9.66021L848.69 16.211C844.893 19.5485 842.82 24.3683 843.002 29.4368C843.003 29.4487 843.003 29.4616 843.004 29.4745L843.405 36.5666C843.562 39.3315 842.554 42.0595 840.645 44.0464L782.438 104.181C780.879 105.815 780.075 108.057 780.173 110.494C780.281 113.177 781.505 115.812 783.447 117.544C785.202 119.108 787.615 119.999 790.026 119.999C790.285 119.999 790.543 119.989 790.8 119.968C793.218 119.774 795.336 118.702 796.769 116.94L849.144 51.6311C850.881 49.4822 853.453 48.149 856.201 47.9741ZM846.348 49.3551L793.978 114.658C793.178 115.642 791.947 116.247 790.513 116.362C788.808 116.5 787.059 115.929 785.834 114.837C784.609 113.744 783.837 112.067 783.768 110.348C783.709 108.903 784.159 107.602 785.025 106.694L843.228 46.5645C845.837 43.8493 847.21 40.1307 846.998 36.3613L846.596 29.2876C846.46 25.3203 848.085 21.5482 851.057 18.9344L858.508 12.3836C864.291 7.30046 871.701 4.70502 879.371 5.07146C880.245 5.11381 881.085 5.45815 881.74 6.04187C882.394 6.62467 882.835 7.42384 882.981 8.29021C884.265 15.9053 882.589 23.6134 878.264 29.9956L872.691 38.2202C870.467 41.5016 866.937 43.5759 863.004 43.9156L855.973 44.3631C852.227 44.6025 848.72 46.4199 846.348 49.3551Z" fill="#FF9F0D"/>
<path d="M883.677 103.724L844.649 67.9762C843.915 67.3031 842.778 67.3565 842.107 68.0949C841.439 68.8333 841.492 69.9778 842.226 70.6508L881.244 106.39C882.173 107.253 882.699 108.524 882.728 109.97C882.761 111.69 882.09 113.411 880.932 114.575C879.775 115.739 878.067 116.416 876.353 116.381C874.915 116.352 873.651 115.823 872.802 114.899L838.025 76.5027C837.356 75.7634 836.218 75.7109 835.484 76.383C834.749 77.0561 834.696 78.2005 835.365 78.9389L870.151 117.345C871.68 119.007 873.857 119.95 876.282 119.998C876.345 119.999 876.408 120 876.471 120C879.077 120 881.684 118.937 883.476 117.134C885.312 115.287 886.377 112.583 886.324 109.899C886.276 107.46 885.34 105.271 883.677 103.724Z" fill="#FF9F0D"/>
<path d="M788.705 47.6314C791.682 50.3898 795.551 51.9624 799.597 52.06C799.61 52.0609 799.623 52.0609 799.635 52.0609L806.699 52.083C809.453 52.0913 812.1 53.267 813.957 55.3026L817.069 58.7378C817.424 59.13 817.911 59.3288 818.399 59.3288C818.832 59.3288 819.266 59.1732 819.61 58.8574C820.345 58.1844 820.398 57.04 819.729 56.3016L816.612 52.8619C814.074 50.0795 810.465 48.4775 806.711 48.4646L799.666 48.4426C796.536 48.3624 793.543 47.1573 791.224 45.0461L770.752 20.5722C770.543 20.3218 770.559 19.959 770.788 19.7279C770.946 19.5687 771.131 19.5456 771.227 19.5456C771.323 19.5456 771.508 19.5687 771.666 19.7279L790.301 38.4687C792.143 40.3211 795.14 40.3211 796.982 38.4678L799.172 36.2664V36.2654L803.061 32.3553C803.061 32.3553 803.062 32.3553 803.062 32.3543L803.063 32.3534L805.252 30.152C807.094 28.2996 807.094 25.2853 805.252 23.4328L786.617 4.693C786.375 4.44994 786.375 4.05312 786.617 3.81006C786.847 3.57896 787.207 3.56331 787.456 3.77323L811.793 24.3618C813.893 26.693 815.092 29.7037 815.171 32.8506L815.192 39.9363C815.205 43.7111 816.799 47.3405 819.569 49.8982L822.904 52.9521C823.639 53.6251 824.776 53.5717 825.445 52.8333C826.114 52.094 826.061 50.9505 825.326 50.2775L821.997 47.2282C819.968 45.3555 818.8 42.6928 818.79 39.9243L818.768 32.8202C818.768 32.8073 818.768 32.7944 818.767 32.7815C818.67 28.7121 817.107 24.8221 814.364 21.828C814.313 21.7719 814.258 21.7185 814.199 21.6688L789.772 1.0047C788.084 -0.424216 785.634 -0.317415 784.074 1.25145C782.428 2.90594 782.428 5.59712 784.074 7.25069L802.708 25.9914C803.148 26.4334 803.148 27.1524 802.708 27.5944L801.79 28.5169L781.021 7.63186C780.319 6.92477 779.18 6.92477 778.478 7.63186C777.776 8.33803 777.776 9.48337 778.478 10.1895L799.247 31.0755L797.901 32.428L777.132 11.543C776.43 10.8368 775.291 10.8368 774.589 11.543C773.886 12.2491 773.886 13.3945 774.589 14.1007L795.357 34.9866L794.439 35.9101C794 36.352 793.285 36.352 792.845 35.9101L774.21 17.1703C773.413 16.3692 772.354 15.9273 771.227 15.9273C770.1 15.9273 769.041 16.3692 768.244 17.1703C766.684 18.7391 766.579 21.2029 767.999 22.9016L788.548 47.4657C788.596 47.5246 788.649 47.5799 788.705 47.6314Z" fill="#FF9F0D"/>
</svg>
